<?xml version="1.0" encoding="utf-8"?>
<!-- Generator: Adobe Illustrator 24.1.3, SVG Export Plug-In . SVG Version: 6.00 Build 0)  -->
<svg version="1.1" id="Layer_1" xmlns="http://www.w3.org/2000/svg" xmlns:xlink="http://www.w3.org/1999/xlink" x="0px" y="0px"
	 viewBox="0 0 108.6 44.3" style="enable-background:new 0 0 108.6 44.3;" xml:space="preserve">
<style type="text/css">
	.st0{enable-background:new    ;}
	.st1{fill:#4B4E53;}
	.st2{fill:#86704C;}
	.st3{fill:none;stroke:#86704C;stroke-width:0.3;}
</style>
<g id="prefix__Group_5269" transform="translate(-870.7 -23.7)">
	<g class="st0">
		<path class="st1" d="M902.8,65h-1.3v-4.1h-4.9V65h-1.3v-9.4h1.3v4.1h4.9v-4.1h1.3V65z"/>
		<path class="st1" d="M909.4,57.9c0.4-0.7,1-1.3,1.7-1.8s1.5-0.7,2.4-0.7c0.9,0,1.7,0.2,2.4,0.7c0.7,0.4,1.3,1,1.8,1.8
			c0.4,0.7,0.7,1.5,0.7,2.4c0,0.9-0.2,1.7-0.6,2.4c-0.4,0.7-1,1.3-1.8,1.7c-0.7,0.4-1.5,0.6-2.4,0.6c-0.9,0-1.7-0.2-2.4-0.6
			c-0.7-0.4-1.3-1-1.7-1.7c-0.4-0.7-0.6-1.5-0.6-2.4C908.8,59.4,909,58.7,909.4,57.9z M910.5,62.1c0.3,0.5,0.7,1,1.3,1.3
			c0.5,0.3,1.1,0.5,1.8,0.5c0.6,0,1.2-0.2,1.8-0.5c0.5-0.3,1-0.7,1.3-1.3c0.3-0.5,0.5-1.2,0.5-1.8c0-0.6-0.2-1.3-0.5-1.8
			s-0.7-1-1.3-1.3c-0.5-0.3-1.1-0.5-1.8-0.5c-0.6,0-1.2,0.2-1.8,0.5s-1,0.8-1.3,1.3s-0.5,1.2-0.5,1.8
			C910.1,61,910.2,61.6,910.5,62.1z"/>
		<path class="st1" d="M929.5,55.6v1.2H927V65h-1.3v-8.2h-2.5v-1.2H929.5z"/>
		<path class="st1" d="M941.6,55.6v1.2h-4.8v2.9h4.3v1.2h-4.3v2.9h5V65h-6.3v-9.4H941.6z"/>
		<path class="st1" d="M949.1,55.6v8.2h4.8V65h-6v-9.4H949.1z"/>
		<path class="st1" d="M963.6,56.8c-0.4-0.1-0.7-0.2-1.1-0.2c-0.5,0-0.9,0.1-1.2,0.3s-0.4,0.5-0.4,0.9c0,0.4,0.2,0.7,0.5,1
			s0.9,0.5,1.5,0.7c0.5,0.2,0.9,0.4,1.2,0.6c0.3,0.2,0.6,0.5,0.8,0.8c0.2,0.4,0.3,0.8,0.3,1.4c0,0.5-0.1,1-0.4,1.4s-0.6,0.7-1.1,1
			c-0.5,0.2-1,0.4-1.6,0.4c-0.6,0-1.1-0.1-1.7-0.3c-0.5-0.2-1-0.4-1.4-0.7l0.6-1c0.3,0.2,0.7,0.4,1.2,0.6s0.9,0.3,1.3,0.3
			c0.5,0,0.9-0.1,1.3-0.4c0.4-0.3,0.6-0.6,0.6-1.2c0-0.4-0.2-0.8-0.5-1c-0.3-0.3-0.8-0.5-1.3-0.7c-0.5-0.2-1-0.4-1.3-0.6
			c-0.4-0.2-0.7-0.5-0.9-0.8c-0.3-0.3-0.4-0.8-0.4-1.3c0-0.7,0.3-1.3,0.8-1.8s1.2-0.7,2-0.7c1,0,2,0.3,2.8,0.8l-0.5,1
			C964.4,57.1,964,56.9,963.6,56.8z"/>
	</g>
	<g class="st0">
		<path class="st2" d="M873.8,45.7l6.9-16.7h0.6l7.2,16.7h2V46h-7.7v-0.3h2.1l-2.7-6.2h-5.5l-2.6,6.2h2V46h-4.3v-0.3H873.8z
			 M876.8,39.2h5.3l-2.7-6.3L876.8,39.2z"/>
		<path class="st2" d="M909.9,29.6v0.3h-2.1v7.4h0.2l7-7.4h-2.3v-0.3h4.6v0.3h-1.8l-5.1,5.4l8,10.3h1.4V46H912v-0.3h2.1l-6.1-8h-0.2
			v8h2.1V46h-7.6v-0.3h2.1V29.9h-2.1v-0.3H909.9z"/>
		<path class="st2" d="M939.3,29.6v0.3h-2.1v7.4h0.2l7-7.4h-2.3v-0.3h4.6v0.3h-1.8l-5.1,5.4l8,10.3h1.4V46h-7.7v-0.3h2.1l-6.1-8
			h-0.2v8h2.1V46h-7.6v-0.3h2.1V29.9h-2.1v-0.3H939.3z"/>
		<path class="st2" d="M961.5,45.7l6.9-16.7h0.6l7.2,16.7h2V46h-7.7v-0.3h2.1l-2.7-6.2h-5.5l-2.6,6.2h2V46h-4.3v-0.3H961.5z
			 M964.5,39.2h5.3l-2.7-6.3L964.5,39.2z"/>
	</g>
	<g class="st0">
		<path class="st3" d="M873.8,45.7l6.9-16.7h0.6l7.2,16.7h2V46h-7.7v-0.3h2.1l-2.7-6.2h-5.5l-2.6,6.2h2V46h-4.3v-0.3H873.8z
			 M876.8,39.2h5.3l-2.7-6.3L876.8,39.2z"/>
		<path class="st3" d="M909.9,29.6v0.3h-2.1v7.4h0.2l7-7.4h-2.3v-0.3h4.6v0.3h-1.8l-5.1,5.4l8,10.3h1.4V46H912v-0.3h2.1l-6.1-8h-0.2
			v8h2.1V46h-7.6v-0.3h2.1V29.9h-2.1v-0.3H909.9z"/>
		<path class="st3" d="M939.3,29.6v0.3h-2.1v7.4h0.2l7-7.4h-2.3v-0.3h4.6v0.3h-1.8l-5.1,5.4l8,10.3h1.4V46h-7.7v-0.3h2.1l-6.1-8
			h-0.2v8h2.1V46h-7.6v-0.3h2.1V29.9h-2.1v-0.3H939.3z"/>
		<path class="st3" d="M961.5,45.7l6.9-16.7h0.6l7.2,16.7h2V46h-7.7v-0.3h2.1l-2.7-6.2h-5.5l-2.6,6.2h2V46h-4.3v-0.3H961.5z
			 M964.5,39.2h5.3l-2.7-6.3L964.5,39.2z"/>
	</g>
</g>
</svg>
