<?xml version="1.0" encoding="utf-8"?>
<!-- Generator: Adobe Illustrator 24.1.3, SVG Export Plug-In . SVG Version: 6.00 Build 0)  -->
<svg version="1.1" id="Layer_1" xmlns="http://www.w3.org/2000/svg" xmlns:xlink="http://www.w3.org/1999/xlink" x="0px" y="0px"
	 viewBox="0 0 192 81" style="enable-background:new 0 0 192 81;" xml:space="preserve">
<style type="text/css">
	.st0{enable-background:new    ;}
	.st1{fill:#4B4E53;}
	.st2{fill:#86704C;}
	.st3{fill:none;stroke:#86704C;}
</style>
<g id="prefix__AKKA-CLAROS" transform="translate(-860 -16)">
	<g class="st0">
		<path class="st1" d="M879.4,87.6c-1.2,0.4-2.5,0.7-4,0.7c-2.5,0-4.7-0.6-6.6-1.7c-1.9-1.1-3.4-2.6-4.4-4.5c-1-1.9-1.5-4-1.5-6.2
			c0-2.4,0.5-4.6,1.6-6.5c1-1.9,2.5-3.5,4.3-4.6c1.8-1.1,3.9-1.6,6.3-1.6c1.4,0,2.7,0.2,3.9,0.5c1.2,0.4,2.3,0.8,3.2,1.4l-1.3,3.1
			c-1.9-1.3-3.8-1.9-5.7-1.9c-1.6,0-3.1,0.4-4.4,1.3c-1.3,0.8-2.4,2-3.2,3.4c-0.8,1.4-1.2,3-1.2,4.7c0,1.8,0.4,3.4,1.1,4.8
			c0.7,1.4,1.8,2.5,3.2,3.3c1.4,0.8,3,1.2,4.7,1.2c2.2,0,4.1-0.6,5.7-1.9l1.4,3C881.6,86.7,880.6,87.2,879.4,87.6z"/>
		<path class="st1" d="M901.4,63.4v21.4h12.5V88h-15.8V63.4H901.4z"/>
		<path class="st1" d="M942.4,81.5h-9.5l-2.6,6.5H927l10.7-25.6h0.2L948.7,88h-3.8L942.4,81.5z M941.2,78.7l-3.5-9l-3.6,9H941.2z"/>
		<path class="st1" d="M977,88l-5.8-9.1c-0.2,0-0.5,0-0.8,0h-3.6v9h-3.3V63.4h6.6c1.7,0,3.2,0.3,4.5,0.9c1.3,0.6,2.3,1.5,3.1,2.6
			s1.1,2.5,1.1,4.1c0,1.5-0.3,2.9-1,4.2c-0.7,1.3-1.7,2.2-3.1,2.9l6.2,9.9H977z M974.2,74.4c0.8-0.9,1.2-2,1.2-3.2
			c0-0.7-0.2-1.4-0.5-2.1c-0.3-0.7-0.8-1.3-1.6-1.8c-0.7-0.5-1.6-0.7-2.7-0.7h-3.8v9.2h3.6C972.1,75.8,973.4,75.3,974.2,74.4z"/>
		<path class="st1" d="M995.8,69.5c1.1-1.9,2.7-3.5,4.6-4.6c1.9-1.1,4-1.7,6.3-1.7c2.2,0,4.3,0.6,6.3,1.7c1.9,1.1,3.5,2.7,4.6,4.6
			c1.1,1.9,1.7,4,1.7,6.3c0,2.3-0.6,4.4-1.7,6.3c-1.1,1.9-2.7,3.5-4.6,4.6c-1.9,1.1-4,1.7-6.3,1.7c-2.3,0-4.4-0.6-6.3-1.7
			s-3.5-2.6-4.6-4.5c-1.1-1.9-1.7-4-1.7-6.3C994.1,73.5,994.6,71.4,995.8,69.5z M998.7,80.4c0.8,1.4,1.9,2.6,3.3,3.4s3,1.3,4.6,1.3
			c1.7,0,3.2-0.4,4.6-1.2c1.4-0.8,2.5-2,3.3-3.4c0.8-1.4,1.2-3,1.2-4.7c0-1.7-0.4-3.3-1.2-4.7c-0.8-1.5-1.9-2.6-3.3-3.4
			s-2.9-1.3-4.6-1.3c-1.7,0-3.2,0.4-4.6,1.3s-2.5,2-3.3,3.5s-1.2,3-1.2,4.7C997.5,77.4,997.9,79,998.7,80.4z"/>
		<path class="st1" d="M1044.8,66.6c-1-0.3-1.9-0.4-2.8-0.4c-1.3,0-2.4,0.3-3.2,0.9s-1.2,1.4-1.2,2.5c0,1,0.5,1.9,1.4,2.5
			c0.9,0.6,2.2,1.3,3.9,1.9c1.3,0.5,2.3,0.9,3.2,1.5c0.9,0.5,1.6,1.3,2.2,2.2c0.6,0.9,0.9,2.1,0.9,3.6c0,1.3-0.3,2.5-1,3.6
			c-0.7,1.1-1.6,1.9-2.8,2.5c-1.2,0.6-2.6,0.9-4.3,0.9c-1.5,0-3-0.2-4.4-0.7c-1.4-0.5-2.6-1.1-3.7-1.9l1.5-2.6
			c0.8,0.6,1.8,1.2,3,1.6c1.2,0.4,2.3,0.7,3.3,0.7c1.3,0,2.5-0.3,3.5-1c1-0.7,1.5-1.7,1.5-3c0-1.1-0.4-2-1.2-2.7
			c-0.8-0.7-2-1.3-3.5-1.9c-1.4-0.5-2.5-1-3.5-1.5c-0.9-0.5-1.7-1.2-2.4-2.1c-0.7-0.9-1-2-1-3.3c0-1.9,0.7-3.5,2-4.7
			c1.3-1.2,3.1-1.8,5.3-1.9c2.7,0,5.1,0.7,7.4,2l-1.3,2.5C1046.8,67.3,1045.8,66.9,1044.8,66.6z"/>
	</g>
	<g class="st0">
		<path class="st2" d="M894.8,42.6l8-19.6h0.7l8.5,19.6h2.3V43h-9.1v-0.4h2.5l-3.1-7.2h-6.5l-3,7.2h2.4V43h-5.1v-0.4H894.8z
			 M898.4,35h6.2l-3.2-7.4L898.4,35z"/>
		<path class="st2" d="M937.3,23.8v0.4h-2.5v8.6h0.2l8.3-8.6h-2.7v-0.4h5.4v0.4h-2.2l-6,6.3l9.3,12.2h1.7V43h-9v-0.4h2.4l-7.2-9.5
			h-0.2v9.5h2.5V43h-8.9v-0.4h2.5V24.2h-2.5v-0.4H937.3z"/>
		<path class="st2" d="M971.8,23.8v0.4h-2.5v8.6h0.2l8.3-8.6H975v-0.4h5.4v0.4h-2.2l-6,6.3l9.3,12.2h1.7V43h-9v-0.4h2.4l-7.2-9.5
			h-0.2v9.5h2.5V43h-8.9v-0.4h2.5V24.2h-2.5v-0.4H971.8z"/>
		<path class="st2" d="M997.8,42.6l8-19.6h0.7l8.5,19.6h2.3V43h-9.1v-0.4h2.5l-3.1-7.2h-6.5l-3,7.2h2.4V43h-5.1v-0.4H997.8z
			 M1001.4,35h6.2l-3.2-7.4L1001.4,35z"/>
	</g>
	<g class="st0">
		<path class="st3" d="M894.8,42.6l8-19.6h0.7l8.5,19.6h2.3V43h-9.1v-0.4h2.5l-3.1-7.2h-6.5l-3,7.2h2.4V43h-5.1v-0.4H894.8z
			 M898.4,35h6.2l-3.2-7.4L898.4,35z"/>
		<path class="st3" d="M937.3,23.8v0.4h-2.5v8.6h0.2l8.3-8.6h-2.7v-0.4h5.4v0.4h-2.2l-6,6.3l9.3,12.2h1.7V43h-9v-0.4h2.4l-7.2-9.5
			h-0.2v9.5h2.5V43h-8.9v-0.4h2.5V24.2h-2.5v-0.4H937.3z"/>
		<path class="st3" d="M971.8,23.8v0.4h-2.5v8.6h0.2l8.3-8.6H975v-0.4h5.4v0.4h-2.2l-6,6.3l9.3,12.2h1.7V43h-9v-0.4h2.4l-7.2-9.5
			h-0.2v9.5h2.5V43h-8.9v-0.4h2.5V24.2h-2.5v-0.4H971.8z"/>
		<path class="st3" d="M997.8,42.6l8-19.6h0.7l8.5,19.6h2.3V43h-9.1v-0.4h2.5l-3.1-7.2h-6.5l-3,7.2h2.4V43h-5.1v-0.4H997.8z
			 M1001.4,35h6.2l-3.2-7.4L1001.4,35z"/>
	</g>
</g>
</svg>
