<?xml version="1.0" encoding="utf-8"?>
<!-- Generator: Adobe Illustrator 24.2.0, SVG Export Plug-In . SVG Version: 6.00 Build 0)  -->
<svg version="1.1" id="Layer_1" xmlns="http://www.w3.org/2000/svg" xmlns:xlink="http://www.w3.org/1999/xlink" x="0px" y="0px"
	 viewBox="0 0 208 120" style="enable-background:new 0 0 208 120;" xml:space="preserve">
<style type="text/css">
	.st0{enable-background:new    ;}
	.st1{fill:#4B4E53;}
	.st2{fill:#86704C;}
	.st3{fill:none;stroke:#86704C;stroke-width:0.3;}
	.st4{fill:none;}
</style>
<g id="prefix__AKKA-Hotels" transform="translate(-853 -843)">
	<g class="st0">
		<path class="st1" d="M917.2,910h-1.8v-6h-7.2v6h-1.8v-13.7h1.8v5.9h7.2v-5.9h1.8V910z"/>
		<path class="st1" d="M926.9,899.6c0.6-1.1,1.5-1.9,2.6-2.6s2.2-1,3.5-1c1.3,0,2.4,0.3,3.5,1s1.9,1.5,2.6,2.6c0.6,1.1,1,2.2,1,3.5
			c0,1.3-0.3,2.4-1,3.5c-0.6,1.1-1.5,1.9-2.6,2.6s-2.3,0.9-3.5,0.9c-1.3,0-2.4-0.3-3.5-0.9c-1.1-0.6-1.9-1.5-2.6-2.5
			s-0.9-2.3-0.9-3.5C926,901.9,926.3,900.7,926.9,899.6z M928.6,905.8c0.5,0.8,1.1,1.4,1.9,1.9c0.8,0.5,1.7,0.7,2.6,0.7
			s1.8-0.2,2.6-0.7c0.8-0.5,1.4-1.1,1.8-1.9c0.4-0.8,0.7-1.7,0.7-2.6c0-0.9-0.2-1.8-0.7-2.6s-1.1-1.5-1.9-1.9
			c-0.8-0.5-1.6-0.7-2.6-0.7s-1.8,0.2-2.6,0.7c-0.8,0.5-1.4,1.1-1.9,1.9c-0.4,0.8-0.7,1.7-0.7,2.6
			C927.9,904.1,928.1,905,928.6,905.8z"/>
		<path class="st1" d="M956.3,896.3v1.8h-3.7v12h-1.8v-12h-3.6v-1.8H956.3z"/>
		<path class="st1" d="M973.9,896.3v1.8h-7.1v4.2h6.3v1.8h-6.3v4.2h7.4v1.8H965v-13.7H973.9z"/>
		<path class="st1" d="M984.9,896.3v12h7v1.8h-8.8v-13.7H984.9z"/>
		<path class="st1" d="M1006.1,898.1c-0.6-0.2-1.1-0.2-1.6-0.2c-0.7,0-1.3,0.2-1.8,0.5c-0.4,0.3-0.7,0.8-0.7,1.4
			c0,0.6,0.3,1,0.8,1.4c0.5,0.4,1.2,0.7,2.2,1.1c0.7,0.3,1.3,0.5,1.8,0.8c0.5,0.3,0.9,0.7,1.2,1.2c0.3,0.5,0.5,1.2,0.5,2
			c0,0.7-0.2,1.4-0.6,2c-0.4,0.6-0.9,1.1-1.6,1.4c-0.7,0.3-1.5,0.5-2.4,0.5c-0.8,0-1.7-0.1-2.5-0.4c-0.8-0.3-1.5-0.6-2.1-1l0.8-1.5
			c0.5,0.4,1,0.7,1.7,0.9c0.7,0.2,1.3,0.4,1.8,0.4c0.7,0,1.4-0.2,1.9-0.6c0.6-0.4,0.8-0.9,0.8-1.7c0-0.6-0.2-1.1-0.7-1.5
			c-0.5-0.4-1.1-0.7-1.9-1.1c-0.8-0.3-1.4-0.6-1.9-0.9c-0.5-0.3-1-0.7-1.3-1.1s-0.6-1.1-0.6-1.8c0-1.1,0.4-1.9,1.1-2.6
			c0.8-0.7,1.7-1,2.9-1.1c1.5,0,2.9,0.4,4.1,1.1l-0.7,1.4C1007.2,898.4,1006.7,898.2,1006.1,898.1z"/>
	</g>
	<g class="st0">
		<path class="st2" d="M879.2,883.5l10.1-24.7h0.9l10.7,24.7h2.9v0.5h-11.4v-0.5h3.2l-3.9-9.1h-8.2l-3.8,9.1h3v0.5h-6.4v-0.5H879.2z
			 M883.7,873.9h7.8l-4-9.3L883.7,873.9z"/>
		<path class="st2" d="M932.7,859.8v0.5h-3.1v10.9h0.3l10.4-10.9h-3.4v-0.5h6.8v0.5h-2.7l-7.6,8l11.8,15.3h2.1v0.5h-11.4v-0.5h3.1
			l-9-11.9h-0.3v11.9h3.1v0.5h-11.2v-0.5h3.1v-23.3h-3.1v-0.5H932.7z"/>
		<path class="st2" d="M976.1,859.8v0.5H973v10.9h0.3l10.4-10.9h-3.4v-0.5h6.8v0.5h-2.7l-7.6,8l11.8,15.3h2.1v0.5h-11.4v-0.5h3.1
			l-9-11.9H973v11.9h3.1v0.5h-11.2v-0.5h3.1v-23.3h-3.1v-0.5H976.1z"/>
		<path class="st2" d="M1009,883.5l10.1-24.7h0.9l10.7,24.7h2.9v0.5h-11.4v-0.5h3.2l-3.9-9.1h-8.2l-3.8,9.1h3v0.5h-6.4v-0.5H1009z
			 M1013.4,873.9h7.8l-4-9.3L1013.4,873.9z"/>
	</g>
	<g class="st0">
		<path class="st3" d="M879.2,883.5l10.1-24.7h0.9l10.7,24.7h2.9v0.5h-11.4v-0.5h3.2l-3.9-9.1h-8.2l-3.8,9.1h3v0.5h-6.4v-0.5H879.2z
			 M883.7,873.9h7.8l-4-9.3L883.7,873.9z"/>
		<path class="st3" d="M932.7,859.8v0.5h-3.1v10.9h0.3l10.4-10.9h-3.4v-0.5h6.8v0.5h-2.7l-7.6,8l11.8,15.3h2.1v0.5h-11.4v-0.5h3.1
			l-9-11.9h-0.3v11.9h3.1v0.5h-11.2v-0.5h3.1v-23.3h-3.1v-0.5H932.7z"/>
		<path class="st3" d="M976.1,859.8v0.5H973v10.9h0.3l10.4-10.9h-3.4v-0.5h6.8v0.5h-2.7l-7.6,8l11.8,15.3h2.1v0.5h-11.4v-0.5h3.1
			l-9-11.9H973v11.9h3.1v0.5h-11.2v-0.5h3.1v-23.3h-3.1v-0.5H976.1z"/>
		<path class="st3" d="M1009,883.5l10.1-24.7h0.9l10.7,24.7h2.9v0.5h-11.4v-0.5h3.2l-3.9-9.1h-8.2l-3.8,9.1h3v0.5h-6.4v-0.5H1009z
			 M1013.4,873.9h7.8l-4-9.3L1013.4,873.9z"/>
	</g>
	<g id="prefix__Rectangle_441" transform="translate(853 843)">
		<g>
			<path class="st4" d="M10,0h188c5.5,0,10,4.5,10,10v100c0,5.5-4.5,10-10,10H10c-5.5,0-10-4.5-10-10V10C0,4.5,4.5,0,10,0z"/>
		</g>
		<g>
			<path class="st2" d="M198,120H10c-5.5,0-10-4.5-10-10V10C0,4.5,4.5,0,10,0h188c5.5,0,10,4.5,10,10v100
				C208,115.5,203.5,120,198,120z M10,0.5c-5.2,0-9.5,4.3-9.5,9.5v100c0,5.2,4.3,9.5,9.5,9.5h188c5.2,0,9.5-4.3,9.5-9.5V10
				c0-5.2-4.3-9.5-9.5-9.5H10z"/>
		</g>
	</g>
</g>
</svg>
