<?xml version="1.0" encoding="utf-8"?>
<!-- Generator: Adobe Illustrator 24.1.3, SVG Export Plug-In . SVG Version: 6.00 Build 0)  -->
<svg version="1.1" id="Layer_1" xmlns="http://www.w3.org/2000/svg" xmlns:xlink="http://www.w3.org/1999/xlink" x="0px" y="0px"
	 viewBox="0 0 298 153.3" style="enable-background:new 0 0 298 153.3;" xml:space="preserve">
<style type="text/css">
	.st0{enable-background:new    ;}
	.st1{fill:#7B5F38;}
	.st2{fill:#4B4E53;}
	.st3{fill:#86704C;}
	.st4{fill:none;stroke:#86704C;stroke-width:0.3;}
</style>
<g id="prefix__AKKA-HOTELS" transform="translate(-363 -83.7)">
	<g class="st0">
		<path class="st1" d="M384.7,207.1v2.4H375v5.7h8.7v2.4H375v5.8h10.1v2.4h-12.6v-18.8H384.7z"/>
		<path class="st1" d="M395.5,225.9l-2.9-3.8l-2.7,3.8h-2.5l4-5.4l-4.1-5.4h3l2.8,3.7l2.4-3.7h2.4l-3.7,5.2l4.2,5.5H395.5z"/>
		<path class="st1" d="M410.6,215.4c0.8,0.5,1.5,1.2,1.9,2c0.5,0.9,0.7,1.9,0.7,3c0,1.1-0.3,2.1-0.8,3c-0.5,0.9-1.2,1.5-2.1,2
			c-0.9,0.5-1.9,0.7-3,0.7c-0.8,0-1.5-0.2-2.2-0.5c-0.7-0.3-1.3-0.8-1.7-1.4v6.8H401v-16.1h2.1l0.2,1.8c0.6-0.6,1.2-1.1,2-1.5
			c0.8-0.4,1.6-0.6,2.5-0.6C408.8,214.7,409.8,214.9,410.6,215.4z M408.8,223.7c0.6-0.3,1-0.8,1.4-1.3c0.3-0.6,0.5-1.2,0.5-1.9
			c0-0.7-0.2-1.4-0.5-1.9c-0.3-0.6-0.8-1-1.3-1.4c-0.6-0.3-1.2-0.5-1.8-0.5c-0.9,0-1.7,0.3-2.4,0.8s-1.1,1.2-1.3,2.1v1.8
			c0.1,0.8,0.5,1.5,1.2,2c0.6,0.5,1.4,0.8,2.3,0.8C407.6,224.2,408.2,224,408.8,223.7z"/>
		<path class="st1" d="M424.1,223.1l1.1,1.8c-0.6,0.4-1.2,0.7-1.9,0.9c-0.7,0.2-1.3,0.3-1.9,0.3c-1.2,0-2.2-0.2-3.1-0.7
			c-0.9-0.5-1.6-1.2-2.1-2c-0.5-0.9-0.7-1.8-0.7-2.9c0-1.1,0.3-2,0.8-2.9c0.5-0.9,1.3-1.6,2.2-2.1c0.9-0.5,1.9-0.8,3-0.8
			c1.4,0,2.6,0.4,3.5,1.2s1.6,2,1.9,3.4l-8.5,3c0.3,0.5,0.7,1,1.3,1.3c0.5,0.3,1.1,0.5,1.8,0.5C422.4,224.1,423.3,223.7,424.1,223.1
			z M418.9,217.6c-0.6,0.7-1,1.6-1,2.7c0,0.3,0,0.5,0,0.6l6.3-2.3c-0.3-0.6-0.6-1.1-1.1-1.4c-0.5-0.4-1.1-0.5-1.8-0.5
			C420.3,216.6,419.5,216.9,418.9,217.6z"/>
		<path class="st1" d="M437,225.8c-0.7,0.2-1.3,0.3-2,0.3c-1.2,0-2.2-0.2-3.1-0.7c-0.9-0.5-1.6-1.1-2.1-2c-0.5-0.9-0.7-1.9-0.7-3
			c0-1.1,0.3-2.1,0.8-3c0.5-0.9,1.2-1.5,2.1-2c0.9-0.5,1.8-0.7,2.8-0.7c1.6,0,3,0.5,4.1,1.4l-1.2,1.6c-0.3-0.3-0.7-0.5-1.2-0.7
			c-0.5-0.2-0.9-0.3-1.5-0.3c-0.6,0-1.2,0.2-1.8,0.5c-0.5,0.3-0.9,0.8-1.2,1.3s-0.5,1.2-0.5,1.8s0.2,1.3,0.5,1.8s0.8,1,1.3,1.3
			c0.6,0.3,1.2,0.5,1.9,0.5c0.9,0,1.7-0.3,2.3-0.8l1.2,1.5C438.2,225.3,437.6,225.6,437,225.8z"/>
		<path class="st1" d="M445.3,210.4v4.8h2.9v1.9h-2.9v8.8h-2.4v-8.8h-2v-1.9h2v-4.8H445.3z"/>
	</g>
	<g class="st0">
		<path class="st1" d="M478.7,206.5v19.4h-2.5v-12.2l-6.9,9.8h-0.1l-6.8-9.5v11.8H460v-19.4h0l9.3,13.1L478.7,206.5L478.7,206.5z"/>
		<path class="st1" d="M483.3,217.5c0.5-0.9,1.2-1.6,2.1-2.1c0.9-0.5,1.9-0.8,3.1-0.8s2.2,0.3,3.1,0.8c0.9,0.5,1.6,1.2,2.1,2.1
			c0.5,0.9,0.7,1.8,0.7,2.9c0,1.1-0.2,2-0.7,2.9c-0.5,0.9-1.2,1.6-2.1,2.1c-0.9,0.5-1.9,0.8-3.1,0.8c-1.1,0-2.1-0.2-3-0.7
			c-0.9-0.5-1.6-1.1-2.1-2c-0.5-0.9-0.8-1.9-0.8-3C482.6,219.3,482.8,218.4,483.3,217.5z M485.5,222.3c0.3,0.6,0.7,1,1.2,1.4
			c0.5,0.3,1.1,0.5,1.8,0.5c1,0,1.8-0.4,2.5-1.1s1-1.6,1-2.7c0-1.1-0.3-1.9-1-2.7c-0.7-0.7-1.5-1.1-2.5-1.1c-0.7,0-1.2,0.2-1.8,0.5
			s-0.9,0.8-1.2,1.4s-0.5,1.2-0.5,1.9S485.2,221.7,485.5,222.3z"/>
		<path class="st1" d="M501.2,216.1c0.5-0.5,1.1-0.8,1.6-1c0.6-0.2,1.1-0.4,1.5-0.4l-0.1,2.4c-0.8,0-1.5,0.1-2.1,0.5
			c-0.6,0.3-1.1,0.8-1.5,1.4c-0.4,0.6-0.5,1.3-0.5,2v4.9h-2.4v-10.8h2.2l0.2,2.5C500.3,217.1,500.7,216.5,501.2,216.1z"/>
		<path class="st1" d="M514.6,223.1l1.1,1.8c-0.6,0.4-1.2,0.7-1.9,0.9c-0.7,0.2-1.3,0.3-1.9,0.3c-1.2,0-2.2-0.2-3.1-0.7
			c-0.9-0.5-1.6-1.2-2.1-2c-0.5-0.9-0.7-1.8-0.7-2.9c0-1.1,0.3-2,0.8-2.9c0.5-0.9,1.3-1.6,2.2-2.1c0.9-0.5,1.9-0.8,3-0.8
			c1.4,0,2.6,0.4,3.5,1.2s1.6,2,1.9,3.4l-8.5,3c0.3,0.5,0.7,1,1.3,1.3c0.5,0.3,1.1,0.5,1.8,0.5C512.9,224.1,513.8,223.7,514.6,223.1
			z M509.4,217.6c-0.6,0.7-1,1.6-1,2.7c0,0.3,0,0.5,0,0.6l6.3-2.3c-0.3-0.6-0.6-1.1-1.1-1.4c-0.5-0.4-1.1-0.5-1.8-0.5
			C510.8,216.6,510,216.9,509.4,217.6z"/>
		<path class="st1" d="M521.2,227.2l-0.8,1.8h-2l0.7-1.8c0.8-2.1,1.2-3.3,1.4-3.6h2.2L521.2,227.2z"/>
	</g>
	<g class="st0">
		<path class="st1" d="M545.7,207.1v2.4h-8.6v6h7.6v2.4h-7.6v8h-2.5v-18.8H545.7z"/>
		<path class="st1" d="M549.1,210.3c0.3-0.3,0.6-0.4,1-0.4s0.7,0.1,1,0.4c0.3,0.3,0.4,0.6,0.4,1c0,0.4-0.1,0.7-0.4,1
			c-0.3,0.3-0.6,0.4-1,0.4s-0.7-0.1-1-0.4c-0.3-0.3-0.4-0.6-0.4-1C548.6,210.9,548.8,210.5,549.1,210.3z M551.2,215.1v10.8h-2.4
			v-10.8H551.2z"/>
		<path class="st1" d="M564.6,215.6c0.7,0.6,1,1.4,1,2.3v8h-2.4v-7.1c0-0.6-0.2-1.1-0.5-1.4c-0.3-0.3-0.8-0.5-1.5-0.5
			c-1,0-1.7,0.4-2.4,1.1c-0.6,0.8-0.9,1.7-0.9,2.9v5h-2.4v-10.8h2.2l0.2,2.1c0.4-0.8,1-1.4,1.7-1.8c0.8-0.4,1.6-0.7,2.6-0.7
			C563.1,214.7,564,215,564.6,215.6z"/>
		<path class="st1" d="M581.1,205.7v20.2h-2.4v-1.7c-0.5,0.6-1.2,1.1-1.9,1.4s-1.6,0.5-2.5,0.5c-1,0-1.9-0.2-2.7-0.7
			c-0.8-0.5-1.5-1.2-1.9-2c-0.5-0.9-0.7-1.9-0.7-3c0-1.2,0.2-2.2,0.7-3c0.5-0.9,1.2-1.5,2-2c0.8-0.5,1.8-0.7,2.9-0.7
			c0.8,0,1.6,0.2,2.4,0.5s1.3,0.8,1.8,1.4v-10.8H581.1z M577.4,223.3c0.7-0.5,1.1-1.2,1.3-2v-2c-0.2-0.8-0.6-1.4-1.3-1.9
			c-0.7-0.5-1.4-0.7-2.3-0.7c-0.7,0-1.3,0.2-1.8,0.5s-1,0.8-1.3,1.3c-0.3,0.6-0.5,1.2-0.5,1.9c0,0.7,0.2,1.3,0.5,1.9
			c0.3,0.6,0.8,1,1.3,1.4c0.6,0.3,1.2,0.5,1.8,0.5C575.9,224.1,576.7,223.8,577.4,223.3z"/>
	</g>
	<g class="st0">
		<path class="st1" d="M612.8,206.5v19.4h-2.5v-12.2l-6.9,9.8h-0.1l-6.8-9.5v11.8h-2.4v-19.4h0l9.3,13.1L612.8,206.5L612.8,206.5z"
			/>
		<path class="st1" d="M617.4,217.5c0.5-0.9,1.2-1.6,2.1-2.1c0.9-0.5,1.9-0.8,3.1-0.8c1.1,0,2.2,0.3,3.1,0.8
			c0.9,0.5,1.6,1.2,2.1,2.1c0.5,0.9,0.7,1.8,0.7,2.9c0,1.1-0.2,2-0.7,2.9c-0.5,0.9-1.2,1.6-2.1,2.1c-0.9,0.5-1.9,0.8-3.1,0.8
			c-1.1,0-2.1-0.2-3-0.7c-0.9-0.5-1.6-1.1-2.1-2c-0.5-0.9-0.8-1.9-0.8-3C616.6,219.3,616.9,218.4,617.4,217.5z M619.5,222.3
			c0.3,0.6,0.7,1,1.2,1.4c0.5,0.3,1.1,0.5,1.8,0.5c1,0,1.8-0.4,2.5-1.1c0.7-0.7,1-1.6,1-2.7c0-1.1-0.3-1.9-1-2.7
			c-0.7-0.7-1.5-1.1-2.5-1.1c-0.7,0-1.2,0.2-1.8,0.5c-0.5,0.3-0.9,0.8-1.2,1.4c-0.3,0.6-0.5,1.2-0.5,1.9S619.2,221.7,619.5,222.3z"
			/>
		<path class="st1" d="M635.3,216.1c0.5-0.5,1.1-0.8,1.6-1c0.6-0.2,1.1-0.4,1.5-0.4l-0.1,2.4c-0.8,0-1.5,0.1-2.1,0.5
			c-0.6,0.3-1.1,0.8-1.5,1.4c-0.4,0.6-0.5,1.3-0.5,2v4.9h-2.4v-10.8h2.2l0.2,2.5C634.4,217.1,634.8,216.5,635.3,216.1z"/>
		<path class="st1" d="M648.7,223.1l1.1,1.8c-0.6,0.4-1.2,0.7-1.9,0.9c-0.7,0.2-1.3,0.3-1.9,0.3c-1.2,0-2.2-0.2-3.1-0.7
			c-0.9-0.5-1.6-1.2-2.1-2c-0.5-0.9-0.7-1.8-0.7-2.9c0-1.1,0.3-2,0.8-2.9c0.5-0.9,1.3-1.6,2.2-2.1c0.9-0.5,1.9-0.8,3-0.8
			c1.4,0,2.6,0.4,3.5,1.2c0.9,0.8,1.6,2,1.9,3.4l-8.5,3c0.3,0.5,0.7,1,1.3,1.3c0.5,0.3,1.1,0.5,1.8,0.5
			C647,224.1,647.9,223.7,648.7,223.1z M643.5,217.6c-0.6,0.7-1,1.6-1,2.7c0,0.3,0,0.5,0,0.6l6.3-2.3c-0.3-0.6-0.6-1.1-1.1-1.4
			c-0.5-0.4-1.1-0.5-1.8-0.5C644.9,216.6,644.1,216.9,643.5,217.6z"/>
	</g>
	<g class="st0">
		<path class="st2" d="M457.9,171.9h-2.8v-9.2h-11v9.2h-2.8v-21h2.8v9.1h11v-9.1h2.8V171.9z"/>
		<path class="st2" d="M472.8,156.1c1-1.6,2.3-3,3.9-3.9c1.6-1,3.4-1.5,5.4-1.5c1.9,0,3.7,0.5,5.3,1.5c1.6,1,3,2.3,3.9,3.9
			c1,1.6,1.5,3.4,1.5,5.3c0,1.9-0.5,3.7-1.5,5.4c-1,1.6-2.3,2.9-3.9,3.9c-1.7,1-3.4,1.4-5.4,1.4c-1.9,0-3.7-0.5-5.4-1.4
			c-1.6-0.9-2.9-2.2-3.9-3.9s-1.4-3.4-1.4-5.4C471.3,159.5,471.8,157.7,472.8,156.1z M475.2,165.4c0.7,1.2,1.6,2.2,2.9,2.9
			c1.2,0.7,2.5,1.1,4,1.1c1.4,0,2.7-0.4,3.9-1.1c1.2-0.7,2.1-1.7,2.8-2.9c0.7-1.2,1-2.6,1-4s-0.3-2.8-1-4c-0.7-1.2-1.6-2.2-2.8-2.9
			s-2.5-1.1-3.9-1.1c-1.4,0-2.7,0.4-3.9,1.1c-1.2,0.7-2.1,1.7-2.8,2.9c-0.7,1.2-1,2.6-1,4C474.2,162.9,474.6,164.2,475.2,165.4z"/>
		<path class="st2" d="M517.6,150.9v2.7H512v18.3h-2.8v-18.3h-5.5v-2.7H517.6z"/>
		<path class="st2" d="M544.5,150.9v2.7h-10.8v6.4h9.7v2.7h-9.7v6.5h11.2v2.7h-14v-21H544.5z"/>
		<path class="st2" d="M561.3,150.9v18.2H572v2.7h-13.5v-21H561.3z"/>
		<path class="st2" d="M593.7,153.7c-0.9-0.3-1.7-0.4-2.4-0.4c-1.1,0-2,0.3-2.7,0.8c-0.7,0.5-1,1.2-1,2.1c0,0.9,0.4,1.6,1.2,2.1
			c0.8,0.6,1.9,1.1,3.3,1.6c1.1,0.4,2,0.8,2.7,1.3s1.4,1.1,1.9,1.9c0.5,0.8,0.7,1.8,0.7,3.1c0,1.1-0.3,2.1-0.8,3
			c-0.6,0.9-1.4,1.6-2.4,2.1c-1,0.5-2.2,0.8-3.6,0.8c-1.3,0-2.5-0.2-3.7-0.6c-1.2-0.4-2.3-0.9-3.2-1.6l1.2-2.2
			c0.7,0.5,1.6,1,2.6,1.4c1,0.4,1.9,0.6,2.8,0.6c1.1,0,2.1-0.3,2.9-0.9c0.8-0.6,1.3-1.4,1.3-2.6c0-1-0.4-1.7-1.1-2.3
			c-0.7-0.6-1.7-1.1-3-1.6c-1.2-0.4-2.2-0.9-2.9-1.3c-0.8-0.4-1.5-1-2-1.8s-0.8-1.7-0.8-2.8c0-1.6,0.6-3,1.7-4s2.6-1.6,4.5-1.6
			c2.3,0,4.4,0.6,6.3,1.7l-1.1,2.2C595.3,154.2,594.5,153.9,593.7,153.7z"/>
	</g>
	<g class="st0">
		<path class="st3" d="M399.6,130.1l15.8-38.5h1.4l16.7,38.5h4.6v0.7h-17.8v-0.7h4.9l-6.1-14.2h-12.7l-5.9,14.2h4.7v0.7h-10v-0.7
			H399.6z M406.6,115.2h12.2l-6.3-14.5L406.6,115.2z"/>
		<path class="st3" d="M482.8,93.1v0.7H478v17h0.4l16.2-17h-5.4v-0.7h10.6v0.7h-4.2l-11.8,12.4l18.3,23.8h3.3v0.7h-17.7v-0.7h4.8
			l-14.1-18.5H478v18.5h4.9v0.7h-17.4v-0.7h4.9V93.9h-4.9v-0.7H482.8z"/>
		<path class="st3" d="M550.6,93.1v0.7h-4.9v17h0.4l16.2-17H557v-0.7h10.6v0.7h-4.2l-11.8,12.4l18.3,23.8h3.3v0.7h-17.7v-0.7h4.8
			l-14.1-18.5h-0.4v18.5h4.9v0.7h-17.4v-0.7h4.9V93.9h-4.9v-0.7H550.6z"/>
		<path class="st3" d="M601.8,130.1l15.8-38.5h1.4l16.7,38.5h4.6v0.7h-17.8v-0.7h4.9l-6.1-14.2h-12.7l-5.9,14.2h4.7v0.7h-10v-0.7
			H601.8z M608.8,115.2H621l-6.3-14.5L608.8,115.2z"/>
	</g>
	<g class="st0">
		<path class="st4" d="M399.6,130.1l15.8-38.5h1.4l16.7,38.5h4.6v0.7h-17.8v-0.7h4.9l-6.1-14.2h-12.7l-5.9,14.2h4.7v0.7h-10v-0.7
			H399.6z M406.6,115.2h12.2l-6.3-14.5L406.6,115.2z"/>
		<path class="st4" d="M482.8,93.1v0.7H478v17h0.4l16.2-17h-5.4v-0.7h10.6v0.7h-4.2l-11.8,12.4l18.3,23.8h3.3v0.7h-17.7v-0.7h4.8
			l-14.1-18.5H478v18.5h4.9v0.7h-17.4v-0.7h4.9V93.9h-4.9v-0.7H482.8z"/>
		<path class="st4" d="M550.6,93.1v0.7h-4.9v17h0.4l16.2-17H557v-0.7h10.6v0.7h-4.2l-11.8,12.4l18.3,23.8h3.3v0.7h-17.7v-0.7h4.8
			l-14.1-18.5h-0.4v18.5h4.9v0.7h-17.4v-0.7h4.9V93.9h-4.9v-0.7H550.6z"/>
		<path class="st4" d="M601.8,130.1l15.8-38.5h1.4l16.7,38.5h4.6v0.7h-17.8v-0.7h4.9l-6.1-14.2h-12.7l-5.9,14.2h4.7v0.7h-10v-0.7
			H601.8z M608.8,115.2H621l-6.3-14.5L608.8,115.2z"/>
	</g>
</g>
</svg>
