<?xml version="1.0" encoding="utf-8"?>
<!-- Generator: Adobe Illustrator 24.1.3, SVG Export Plug-In . SVG Version: 6.00 Build 0)  -->
<svg version="1.1" id="Layer_1" xmlns="http://www.w3.org/2000/svg" xmlns:xlink="http://www.w3.org/1999/xlink" x="0px" y="0px"
	 viewBox="0 0 168 81" style="enable-background:new 0 0 168 81;" xml:space="preserve">
<style type="text/css">
	.st0{enable-background:new    ;}
	.st1{fill:#4B4E53;}
	.st2{fill:#86704C;}
	.st3{fill:none;stroke:#86704C;}
</style>
<g id="prefix__AKKA-SUITES" transform="translate(-871 -16)">
	<g class="st0">
		<path class="st1" d="M884.5,66.6c-1-0.3-1.9-0.4-2.8-0.4c-1.3,0-2.4,0.3-3.2,0.9c-0.8,0.6-1.2,1.4-1.2,2.5c0,1,0.5,1.9,1.4,2.5
			c0.9,0.6,2.2,1.3,3.9,1.9c1.3,0.5,2.3,0.9,3.2,1.5c0.9,0.5,1.6,1.3,2.2,2.2c0.6,0.9,0.9,2.1,0.9,3.6c0,1.3-0.3,2.5-1,3.6
			c-0.7,1.1-1.6,1.9-2.8,2.5c-1.2,0.6-2.6,0.9-4.3,0.9c-1.5,0-3-0.2-4.4-0.7c-1.4-0.5-2.6-1.1-3.7-1.9l1.5-2.6
			c0.8,0.6,1.8,1.2,3,1.6c1.2,0.4,2.3,0.7,3.3,0.7c1.3,0,2.5-0.3,3.5-1c1-0.7,1.5-1.7,1.5-3c0-1.1-0.4-2-1.2-2.7
			c-0.8-0.7-2-1.3-3.5-1.9c-1.4-0.5-2.5-1-3.5-1.5c-0.9-0.5-1.7-1.2-2.4-2.1c-0.7-0.9-1-2-1-3.3c0-1.9,0.7-3.5,2-4.7
			c1.3-1.2,3.1-1.8,5.3-1.9c2.7,0,5.1,0.7,7.4,2l-1.3,2.5C886.5,67.3,885.5,66.9,884.5,66.6z"/>
		<path class="st1" d="M908.4,82.2c0.5,0.9,1.2,1.6,2.1,2.1c0.9,0.5,1.9,0.8,3,0.8c1.1,0,2.2-0.2,3.1-0.7c0.9-0.5,1.6-1.2,2.2-2.1
			c0.5-0.9,0.8-1.9,0.8-3V63.4h3.2v16c0,1.7-0.4,3.3-1.2,4.6s-1.9,2.4-3.3,3.1c-1.4,0.7-3,1.1-4.7,1.1c-1.7,0-3.3-0.4-4.7-1.1
			c-1.4-0.7-2.5-1.8-3.3-3.1c-0.8-1.3-1.2-2.9-1.2-4.6v-16h3.3v15.9C907.6,80.4,907.9,81.4,908.4,82.2z"/>
		<path class="st1" d="M943,63.4V88h-3.3V63.4H943z"/>
		<path class="st1" d="M974.8,63.4v3.2h-6.6V88h-3.3V66.6h-6.4v-3.2H974.8z"/>
		<path class="st1" d="M1006.2,63.4v3.2h-12.7v7.5h11.3v3.2h-11.3v7.6h13.2V88h-16.5V63.4H1006.2z"/>
		<path class="st1" d="M1032.6,66.6c-1-0.3-1.9-0.4-2.8-0.4c-1.3,0-2.4,0.3-3.2,0.9s-1.2,1.4-1.2,2.5c0,1,0.5,1.9,1.4,2.5
			c0.9,0.6,2.2,1.3,3.9,1.9c1.3,0.5,2.3,0.9,3.2,1.5c0.9,0.5,1.6,1.3,2.2,2.2c0.6,0.9,0.9,2.1,0.9,3.6c0,1.3-0.3,2.5-1,3.6
			c-0.7,1.1-1.6,1.9-2.8,2.5c-1.2,0.6-2.6,0.9-4.3,0.9c-1.5,0-3-0.2-4.4-0.7c-1.4-0.5-2.6-1.1-3.7-1.9l1.5-2.6
			c0.8,0.6,1.8,1.2,3,1.6c1.2,0.4,2.3,0.7,3.3,0.7c1.3,0,2.5-0.3,3.5-1c1-0.7,1.5-1.7,1.5-3c0-1.1-0.4-2-1.2-2.7
			c-0.8-0.7-2-1.3-3.5-1.9c-1.4-0.5-2.5-1-3.5-1.5c-0.9-0.5-1.7-1.2-2.4-2.1c-0.7-0.9-1-2-1-3.3c0-1.9,0.7-3.5,2-4.7
			c1.3-1.2,3.1-1.8,5.3-1.9c2.7,0,5.1,0.7,7.4,2l-1.3,2.5C1034.5,67.3,1033.5,66.9,1032.6,66.6z"/>
	</g>
	<g class="st0">
		<path class="st2" d="M894.8,42.6l8-19.6h0.7l8.5,19.6h2.3V43h-9.1v-0.4h2.5l-3.1-7.2h-6.5l-3,7.2h2.4V43h-5.1v-0.4H894.8z
			 M898.4,35h6.2l-3.2-7.4L898.4,35z"/>
		<path class="st2" d="M937.3,23.8v0.4h-2.5v8.6h0.2l8.3-8.6h-2.7v-0.4h5.4v0.4h-2.2l-6,6.3l9.3,12.2h1.7V43h-9v-0.4h2.4l-7.2-9.5
			h-0.2v9.5h2.5V43h-8.9v-0.4h2.5V24.2h-2.5v-0.4H937.3z"/>
		<path class="st2" d="M971.8,23.8v0.4h-2.5v8.6h0.2l8.3-8.6H975v-0.4h5.4v0.4h-2.2l-6,6.3l9.3,12.2h1.7V43h-9v-0.4h2.4l-7.2-9.5
			h-0.2v9.5h2.5V43h-8.9v-0.4h2.5V24.2h-2.5v-0.4H971.8z"/>
		<path class="st2" d="M997.8,42.6l8-19.6h0.7l8.5,19.6h2.3V43h-9.1v-0.4h2.5l-3.1-7.2h-6.5l-3,7.2h2.4V43h-5.1v-0.4H997.8z
			 M1001.4,35h6.2l-3.2-7.4L1001.4,35z"/>
	</g>
	<g class="st0">
		<path class="st3" d="M894.8,42.6l8-19.6h0.7l8.5,19.6h2.3V43h-9.1v-0.4h2.5l-3.1-7.2h-6.5l-3,7.2h2.4V43h-5.1v-0.4H894.8z
			 M898.4,35h6.2l-3.2-7.4L898.4,35z"/>
		<path class="st3" d="M937.3,23.8v0.4h-2.5v8.6h0.2l8.3-8.6h-2.7v-0.4h5.4v0.4h-2.2l-6,6.3l9.3,12.2h1.7V43h-9v-0.4h2.4l-7.2-9.5
			h-0.2v9.5h2.5V43h-8.9v-0.4h2.5V24.2h-2.5v-0.4H937.3z"/>
		<path class="st3" d="M971.8,23.8v0.4h-2.5v8.6h0.2l8.3-8.6H975v-0.4h5.4v0.4h-2.2l-6,6.3l9.3,12.2h1.7V43h-9v-0.4h2.4l-7.2-9.5
			h-0.2v9.5h2.5V43h-8.9v-0.4h2.5V24.2h-2.5v-0.4H971.8z"/>
		<path class="st3" d="M997.8,42.6l8-19.6h0.7l8.5,19.6h2.3V43h-9.1v-0.4h2.5l-3.1-7.2h-6.5l-3,7.2h2.4V43h-5.1v-0.4H997.8z
			 M1001.4,35h6.2l-3.2-7.4L1001.4,35z"/>
	</g>
</g>
</svg>
