<?xml version="1.0" encoding="utf-8"?>
<!-- Generator: Adobe Illustrator 24.1.3, SVG Export Plug-In . SVG Version: 6.00 Build 0)  -->
<svg version="1.1" id="Layer_1" xmlns="http://www.w3.org/2000/svg" xmlns:xlink="http://www.w3.org/1999/xlink" x="0px" y="0px"
	 viewBox="0 0 184 81" style="enable-background:new 0 0 184 81;" xml:space="preserve">
<style type="text/css">
	.st0{enable-background:new    ;}
	.st1{fill:#4B4E53;}
	.st2{fill:#86704C;}
	.st3{fill:none;stroke:#86704C;}
</style>
<g id="prefix__AKKA-ALINDA" transform="translate(-864 -16)">
	<g class="st0">
		<path class="st1" d="M880.9,81.5h-9.5l-2.6,6.5h-3.3l10.7-25.6h0.2L887.3,88h-3.8L880.9,81.5z M879.8,78.7l-3.5-9l-3.6,9H879.8z"
			/>
		<path class="st1" d="M905.4,63.4v21.4h12.5V88h-15.8V63.4H905.4z"/>
		<path class="st1" d="M936.7,63.4V88h-3.3V63.4H936.7z"/>
		<path class="st1" d="M975.4,63.4v25.4h-0.1l-18.1-18.3l0.1,17.5H954V62.7h0.2l18,18.5l-0.1-17.8H975.4z"/>
		<path class="st1" d="M992.7,63.4h6.7c3.1,0,5.6,0.6,7.6,1.8c2,1.2,3.5,2.8,4.4,4.7c0.9,1.9,1.4,3.9,1.4,6.1c0,2.4-0.6,4.5-1.7,6.3
			c-1.1,1.8-2.6,3.2-4.5,4.2c-1.9,1-3.9,1.5-6.1,1.5h-7.9V63.4z M1000,84.8c1.8,0,3.4-0.4,4.9-1.1c1.4-0.7,2.5-1.8,3.3-3.1
			s1.2-3,1.2-4.9c0-1.9-0.4-3.6-1.3-5c-0.8-1.4-2-2.4-3.3-3.1c-1.4-0.7-2.9-1.1-4.5-1.1H996v18.2H1000z"/>
		<path class="st1" d="M1040.1,81.5h-9.5L1028,88h-3.3l10.7-25.6h0.2l10.7,25.6h-3.8L1040.1,81.5z M1039,78.7l-3.5-9l-3.6,9H1039z"
			/>
	</g>
	<g class="st0">
		<path class="st2" d="M894.8,42.6l8-19.6h0.7l8.5,19.6h2.3V43h-9.1v-0.4h2.5l-3.1-7.2h-6.5l-3,7.2h2.4V43h-5.1v-0.4H894.8z
			 M898.4,35h6.2l-3.2-7.4L898.4,35z"/>
		<path class="st2" d="M937.3,23.8v0.4h-2.5v8.6h0.2l8.3-8.6h-2.7v-0.4h5.4v0.4h-2.2l-6,6.3l9.3,12.2h1.7V43h-9v-0.4h2.4l-7.2-9.5
			h-0.2v9.5h2.5V43h-8.9v-0.4h2.5V24.2h-2.5v-0.4H937.3z"/>
		<path class="st2" d="M971.8,23.8v0.4h-2.5v8.6h0.2l8.3-8.6H975v-0.4h5.4v0.4h-2.2l-6,6.3l9.3,12.2h1.7V43h-9v-0.4h2.4l-7.2-9.5
			h-0.2v9.5h2.5V43h-8.9v-0.4h2.5V24.2h-2.5v-0.4H971.8z"/>
		<path class="st2" d="M997.8,42.6l8-19.6h0.7l8.5,19.6h2.3V43h-9.1v-0.4h2.5l-3.1-7.2h-6.5l-3,7.2h2.4V43h-5.1v-0.4H997.8z
			 M1001.4,35h6.2l-3.2-7.4L1001.4,35z"/>
	</g>
	<g class="st0">
		<path class="st3" d="M894.8,42.6l8-19.6h0.7l8.5,19.6h2.3V43h-9.1v-0.4h2.5l-3.1-7.2h-6.5l-3,7.2h2.4V43h-5.1v-0.4H894.8z
			 M898.4,35h6.2l-3.2-7.4L898.4,35z"/>
		<path class="st3" d="M937.3,23.8v0.4h-2.5v8.6h0.2l8.3-8.6h-2.7v-0.4h5.4v0.4h-2.2l-6,6.3l9.3,12.2h1.7V43h-9v-0.4h2.4l-7.2-9.5
			h-0.2v9.5h2.5V43h-8.9v-0.4h2.5V24.2h-2.5v-0.4H937.3z"/>
		<path class="st3" d="M971.8,23.8v0.4h-2.5v8.6h0.2l8.3-8.6H975v-0.4h5.4v0.4h-2.2l-6,6.3l9.3,12.2h1.7V43h-9v-0.4h2.4l-7.2-9.5
			h-0.2v9.5h2.5V43h-8.9v-0.4h2.5V24.2h-2.5v-0.4H971.8z"/>
		<path class="st3" d="M997.8,42.6l8-19.6h0.7l8.5,19.6h2.3V43h-9.1v-0.4h2.5l-3.1-7.2h-6.5l-3,7.2h2.4V43h-5.1v-0.4H997.8z
			 M1001.4,35h6.2l-3.2-7.4L1001.4,35z"/>
	</g>
</g>
</svg>
