<?xml version="1.0" encoding="utf-8"?>
<!-- Generator: Adobe Illustrator 24.2.0, SVG Export Plug-In . SVG Version: 6.00 Build 0)  -->
<svg version="1.1" id="Layer_1" xmlns="http://www.w3.org/2000/svg" xmlns:xlink="http://www.w3.org/1999/xlink" x="0px" y="0px"
	 viewBox="0 0 189.3 51.5" style="enable-background:new 0 0 189.3 51.5;" xml:space="preserve">
<style type="text/css">
	.st0{fill-rule:evenodd;clip-rule:evenodd;fill:#947D58;}
	.st1{fill-rule:evenodd;clip-rule:evenodd;fill:#4B4E53;}
	.st2{enable-background:new    ;}
	.st3{fill:#4B4E53;}
</style>
<g id="prefix__MY-AKKA-Blog" transform="translate(-47 -53.508)">
	<g id="prefix__Group_9655" transform="translate(0 5)">
		<path id="prefix__Path_8026" class="st0" d="M54.1,75C54,75.1,53.9,75,54,75C54,75,54.1,75,54.1,75L54.1,75z M54,72.3l0-0.2
			C54,72.1,54,72.2,54,72.3z M53.9,72.1l0-0.1c0-0.1,0.1-0.2,0.1,0C54,72.1,54,72,53.9,72.1L53.9,72.1z M53.9,71.3
			c-0.1-1,0-1.9,0-2.9c0-0.2,0-0.4,0.1-0.7c0.3-2.2,0.9-4.3,1.7-6.3c0.2-0.3,0.3-0.7,0.5-1c0-0.1,0.1-0.2,0.2-0.3
			c0.4-0.6,0.7-1.1,1.1-1.7c-0.1,0.1-0.2,0.3-0.3,0.4c0,0,0,0,0-0.1c0.1-0.2,0.3-0.3,0.4-0.5c0.1-0.1,0.1-0.2,0.2-0.3
			c-0.2,0.3-0.5,0.7-0.8,1.3L56.6,60l0,0c-0.1,0.1-0.1,0.2-0.2,0.3c0,0,0.3-0.5,0.4-0.7c-0.2,0.3-0.3,0.6-0.5,0.9
			c-0.1,0.2-0.2,0.5-0.3,0.7c-0.2,0.3-0.4,0.6-0.6,1c-0.1,0.2-0.2,0.5-0.3,0.7c0,0-0.2,0.5,0,0.2l0.1-0.2c0.2-0.4,0.4-0.8,0.6-1.2
			c-0.5,0.7-0.5,0.6,0.1-0.1c0-0.1,0-0.1,0.1-0.2c-0.8,1.8-1.3,3.8-1.5,5.8c-0.2,0.6-0.3,1.3-0.4,1.9c0,0.2,0,0.4,0,0.6
			c0,0.2,0,0.1,0,0.4c0,0.2,0,0.4,0,0.6C53.9,71,53.9,71.1,53.9,71.3L53.9,71.3z M54.5,67.4c0.1-0.3,0.2-0.6,0.3-0.9l0,0
			C56,62,58.3,58,61.5,54.7c2.4-2.2,1.8-1.5,2.7-2c-0.4,0.2-0.9,0.5-0.9,0.6c0.1-0.1,0.1-0.1,0.2-0.2c-0.3,0.2-0.5,0.4-0.8,0.6
			c-0.3,0.2-1,0.7-1,0.7s-0.2,0.2-0.3,0.3s-0.2,0.2-0.3,0.2c-0.1,0.1-0.2,0.3-0.4,0.4c0,0,0,0,0.1-0.1c0,0-0.1,0.1-0.1,0.1
			c0,0,0,0,0,0v0c-0.1,0.1-0.2,0.2-0.2,0.3c-0.5,0.5-1,1-1.4,1.6c0.1-0.1,0.2-0.2,0.3-0.3c-0.4,0.4-0.8,0.9-1.1,1.4c0,0,0,0,0.1,0
			c-0.2,0.2-0.3,0.5-0.5,0.7c0.1-0.1,0.1-0.2,0.2-0.3c0,0,0,0-0.1,0c-0.1,0.1-0.2,0.3-0.3,0.4c0-0.1,0.1-0.1,0.1-0.1
			c-0.2,0.3-0.4,0.6-0.6,0.9c-0.2,0.3-0.4,0.6-0.6,0.9c-0.7,1.2-1.3,2.6-1.7,3.9c0,0,0,0,0,0.1c-0.1,0.2-0.1,0.4-0.2,0.6
			C54.6,66,54.5,66.7,54.5,67.4L54.5,67.4z M92.9,80.1c0-0.1,0-0.1,0.1-0.2C93,80,92.9,80,92.9,80.1C93.1,79.7,93.1,79.7,92.9,80.1
			c0,0,0,0.1-0.1,0.2C92.8,80.4,92.9,80.1,92.9,80.1L92.9,80.1z M94.7,77.2c0-0.1,0.1-0.1,0.1-0.2c0-0.1,0.3-1.6,0.3-1.6s0,0,0,0
			c0,0,0,0,0-0.1c0-0.3,0.1-0.7,0.1-1c0-0.1,0-0.1,0-0.2c0.1-1.2,0.1-2.5,0-3.7c-0.1-1.2-0.3-2.4-0.7-3.6c-0.1-0.2-0.1-0.5-0.2-0.7
			s-0.1-0.5-0.2-0.7c-0.1-0.3-0.2-0.6-0.4-0.9c-0.2-0.6-0.4-1.2-0.7-1.7c0,0,0-0.1-0.1-0.1c0,0,0,0.1,0,0.1s0,0.1,0,0.1
			c0,0,0-0.1-0.1-0.1c0,0-0.1-0.1-0.1-0.1c0,0,0,0,0,0c-0.1-0.3-0.3-0.5-0.4-0.8c-0.3-0.7-0.6-1.4-0.9-2.1c-0.2-0.3-0.8-0.9-0.9-1.2
			c-0.7-0.9-1.4-1.7-2.3-2.4c0,0-0.1,0-0.1-0.1c-0.5-0.4-1-0.8-1.5-1.1c-0.9-0.6-1.8-1.1-2.7-1.6c-0.4-0.3-0.8-0.7-1.2-1
			c-0.3-0.2-0.5-0.4-0.8-0.6c-0.3-0.2-0.6-0.4-1-0.7c-0.7-0.5-1.5-0.9-2.3-1.2c-0.7-0.3-1.4-0.6-2.1-0.8c0,0-0.6-0.2-0.9-0.3
			s-0.6-0.1-0.9-0.2c-1.1-0.2-2.2-0.3-3.3-0.3c-0.7,0.1-1.3,0.3-2,0.5c-0.2-0.1-0.4-0.1-0.6-0.2c-0.3,0.1-0.5,0.2-0.8,0.4
			c-0.3,0-0.6,0-0.9,0.1c0,0.1-0.1,0.1-0.1,0.1c-0.1,0.1-0.2,0.2-0.3,0.4c-0.1-0.1-0.2-0.2-0.4-0.3c0,0-0.1,0-0.1,0
			c0,0.1-0.1,0.3-0.2,0.4c-0.1-0.1-0.3-0.1-0.4-0.2c-0.1,0-0.2,0.1-0.2,0.1c0,0.2,0,0.3-0.1,0.5c-0.2-0.1-0.4-0.2-0.5-0.3l-0.7,0.3
			c-0.7,0.6-1.4,1.1-2,1.8c-0.4,0.1-0.9,0.3-1.3,0.5c-0.3,0.3-0.5,0.6-0.7,0.9c0,0-0.1,0.1-0.1,0.1c-0.1,0-0.2,0-0.3,0
			c-0.7,0.7-1.4,1.4-2.1,2.1c-0.1,0.2-0.2,0.4-0.4,0.5c-0.1,0.1,0,0.1-0.2,0.3c-0.1,0.1-0.2,0.3-0.3,0.4c-0.2,0.3-0.4,0.5-0.6,0.8
			c0,0,0,0.1,0,0.1c0.1,0,0.2-0.1,0.1,0c-0.1,0.1,0,0.1-0.1,0.1c0,0,0,0,0,0c0,0.1-0.1,0.1-0.1,0.2c0,0,0-0.1,0-0.1
			c-0.1,0.2-0.2,0.4-0.3,0.5c-0.1,0.1-0.1,0.2-0.2,0.3c-0.2,0.3-0.4,0.6-0.5,0.9c-0.4,0.8-0.8,1.7-1.2,2.5c-0.2,0.5-0.4,1.1-0.5,1.7
			c0,0.1-0.1,0.3-0.1,0.2c-0.1,0.2-0.1,0.5-0.2,0.7c0,0,0-0.1,0.1-0.1c-0.1,0.2-0.1,0.4-0.2,0.5c0,0,0,0,0,0c0,0.1,0,0.2-0.1,0.3
			c0,0,0-0.1,0-0.1c0,0,0,0-0.1,0c0,0,0,0.1,0,0.1c0,0,0,0,0,0c0,0.1,0,0.2-0.1,0.3c-0.1,0.5-0.1,1-0.2,1.5c-0.1,0.5-0.1,1-0.1,1.6
			c0,0.2,0,0.3,0,0.5c0,0.6,0,1.2,0,1.7c0,0.1,0.1,0.3,0.1,0.5c0,0.8,0.1,1.7,0.3,2.5c0.1,0.3,0.1,0.5,0.2,0.8
			c0,0.2,0.1,0.4,0.2,0.6v0c0.1,0.4,0.3,0.8,0.4,1.3c0,0.2,0.1,0.4,0.1,0.5c0.1,0.2,0.2,0.5,0.2,0.5C54,78,54,78,53.9,77.9
			c0,0,0.2,0.5,0.2,0.7c0.1,0.4,0.3,0.7,0.5,1.1c0.1,0.2,0.2,0.4,0.3,0.5c0.1,0.3,0.2,0.6,0.3,1c0,0.1,0.2,0.4,0.2,0.4
			c0,0.2-0.1,0.3,0,0.5c0.3,0.6,0.7,1.2,1,1.8c0,0.1,0.1,0.1,0.1,0.2c0,0,0,0,0,0c0-0.1,0-0.1,0.1-0.1s0,0.1,0,0.1
			c0,0,0.1,0.1,0.1,0.1c0.2,0.4,0.5,0.8,0.8,1.2c0.3,0.4,0.6,0.8,1,1.1c0.1,0.2,0.3,0.3,0.4,0.5c-0.3-0.2-0.5-0.5-0.8-0.7
			c0.2,0.2,0.3,0.4,0.5,0.6c0,0,0,0,0,0c0.1,0.2,0.2,0.3,0.3,0.4c0,0-0.1-0.1-0.1-0.1l0.3,0.2c0,0,0.2,0.1,0.1,0.1
			c0.1,0.1,0.2,0.2,0.3,0.3c0,0,0,0,0,0c0.1,0.1,0.2,0.2,0.3,0.3c0.5,0.4,1,0.9,1.5,1.3c0,0,0.1,0,0.1,0c0,0,0.1,0.1,0.1,0.1
			c0,0,0,0,0.1,0c0,0,0,0,0,0c0.2,0.1,0.4,0.2,0.6,0.4c0.1,0,0.1,0.1,0.2,0.1c0,0,0,0,0.1,0c0.6,0.4,1.2,0.7,1.8,1
			c-1.2-0.5-2.3-1.2-3.5-1.9c0,0-0.1,0-0.1,0h0c0.1,0.1,0.2,0.2,0.3,0.3c0.2,0.3-0.9-0.6-0.7-0.4c0.3,0.3,0.6,0.5,0.9,0.7
			s0.6,0.4,0.9,0.7l0.2,0.1c-0.2-0.2-0.5-0.4-0.7-0.5c-0.2-0.1-0.3-0.2-0.5-0.4c-0.2-0.2-0.5-0.4-0.7-0.6c0.1,0.1,0.2,0.2,0.3,0.3
			c0.3,0.3,0.6,0.5,0.9,0.7c0,0,0,0,0.1,0c0.3,0.2,0.7,0.5,1.1,0.6c0.1,0.1,0.2,0.2,0.3,0.2c0.1,0.1,0.3,0.3,0.4,0.4c0,0,0,0,0,0
			c0.2,0.1,0.5,0.3,0.7,0.5c0,0,0,0,0,0c0.1,0,0.3,0.1,0.1,0c0.2,0.1,0.5,0.2,0.7,0.3c0,0,0.2,0.1,0.2,0.1c0.8,0.3,1.7,0.5,2.6,0.7
			c-0.2,0-0.3,0-0.5-0.1c0,0,0.6,0.1,0.9,0.2c0,0,0.8,0.1,0.9,0.1c0.7,0.1,1.5,0.1,2.2,0c0.2,0,0.4-0.1,0.6-0.1c0.1,0,0.3,0,0.4,0
			s0.4-0.1,0.8-0.1h0.3c0,0,0,0,0,0c0.1,0,0.3,0,0.4,0c0.7,0,1.3,0,2,0c0.2-0.1,0.1-0.1,0.3,0c0,0,0,0,0,0c0.2,0,0.5,0,0.7-0.1
			c0,0,0.2,0,0.2,0c0.1,0,0.2-0.1,0.3-0.1c0.2,0,0.5,0,0.7-0.1c0.4-0.1,0.8-0.1,1.2-0.2c0.1,0.1,0.2-0.1,0.3-0.2
			c0.2-0.1,0.5-0.2,0.7-0.2c0.2,0,0,0.1,0.3,0c0.1,0,0.2-0.1,0.3-0.1l-0.1,0.1c0.2-0.1,0.4-0.1,0.7-0.2c0.1-0.1,0.2-0.1,0.3-0.2
			c0.1,0,0.3-0.2,0.3-0.2c0.2,0,0.5-0.2,0.5-0.1c0.6-0.3,1.2-0.6,1.8-0.9c3.5-1.9,6.3-4.8,8.1-8.3c0-0.1,0.1-0.3,0-0.4
			c-0.7,1.2-1.4,2.4-2.4,3.5c-1.7,2-3.7,3.6-6,4.8l-1.4,0.7c0.2-0.1,0.3-0.2,0.5-0.3c0.1-0.1,0.2-0.3,0.3-0.5
			c0.2-0.1,0.3-0.2,0.5-0.2c0.6-0.3,1.1-0.6,1.6-0.9c0.3-0.2,0.7-0.4,1-0.6c1.2-1,2.3-2,3.3-3.1c1.3-1.5,2.3-3.1,3.1-4.9
			c0,0,0-0.1,0-0.1c0.1-0.1,0.1-0.3,0.1-0.4c0,0,0.2-0.6,0.1-0.3c0,0-0.1,0.1-0.1,0.2c-0.2,0.5-0.4,1-0.6,1.4c0,0,0-0.1,0,0
			c0,0,0-0.1,0,0c-0.1,0.1-0.1,0.2-0.2,0.3c-0.7,1.3-1.5,2.6-2.5,3.7c-0.6,0.7-1.3,1.4-2,2c-0.2,0.2-0.4,0.4-0.6,0.6
			c0,0-0.5,0.4-0.6,0.5c-0.1,0.1-0.4,0.3-0.6,0.4c-0.2,0.2-0.5,0.3-0.7,0.5c0,0,0,0,0.1,0c-0.1,0-0.1,0.1-0.2,0.1c0,0,0.1,0,0.1-0.1
			c-0.5,0.2-1,0.4-1.5,0.7c-0.1,0-0.1,0.1-0.2,0.1c0.1,0,0.1-0.1,0.2-0.1h0.1c0,0-0.1,0-0.1,0.1c-0.1,0-0.3,0.1-0.4,0.2
			c0-0.1,0.1-0.1,0.1-0.2c-0.2,0.1-0.4,0.2-0.6,0.3c-0.2,0.1-0.4,0.1-0.5,0.2c-0.6,0.2-1.2,0.3-1.7,0.4c-0.4,0.2-0.9,0.3-1.3,0.4
			c-0.6,0.1-1.2,0.2-1.8,0.3c0.3-0.1,0.5-0.3,0.5-0.3c0.2-0.1,0.4-0.2,0.6-0.3c-0.3,0.1-0.6,0.3-0.9,0.4l0.4-0.2
			c0.3-0.1,0.6-0.3,0.9-0.4c0.1-0.1,0.3-0.2,0.4-0.2c0.2-0.1,0.5-0.3,0.7-0.4c0.1-0.1,0.2-0.1,0.3-0.2c0.2-0.2,0.5-0.3,0.8-0.5
			c0.2-0.2,0.4-0.3,0.7-0.5c0.1,0,0.2-0.1,0.1,0c0.2-0.1,0.4-0.2,0.5-0.3c0,0,0,0,0,0c0.8-0.6,1.7-1.2,2.4-1.9
			c0.2-0.1,0.3-0.2,0.5-0.4c0,0-0.1,0-0.1,0c0.1-0.1,0.2-0.1,0.2-0.2c0,0,0,0,0,0c0,0-0.1,0.1-0.1,0.1c0.1-0.1,0.3-0.2,0.4-0.3
			c0,0,0,0,0,0c0.2-0.2,0.5-0.4,0.7-0.6c0,0,0.1-0.1,0.1-0.1c0,0-0.1,0.1-0.1,0.1s-0.1,0-0.1,0.1c0,0,0.1,0,0.1-0.1
			c0.5-0.4,1-0.9,1.4-1.4c0.1-0.2,0.2-0.3,0.4-0.5c0.7-0.7,1.3-1.5,1.9-2.3c0.1-0.1,0.2-0.3,0.3-0.4c0.2-0.3,0.4-0.6,0.6-0.9
			c0,0,0,0,0,0c0.2-0.3,0.4-0.7,0.5-1.1c0.1-0.1,0.1-0.2,0.1-0.3c0.1-0.2,0.1-0.3,0.2-0.5c0-0.1,0.1-0.3,0.1-0.4
			c0,0,0.1-0.2,0.1-0.1c0.1-0.2,0.2-0.4,0.3-0.6c0-0.1,0.1-0.2,0.1-0.2c0.1-0.2,0.1-0.3,0.2-0.5c0-0.1,0-0.1,0.1-0.2
			c0-0.1,0.1-0.2,0.1-0.2c0-0.1,0.1-0.3,0.1-0.4c0,0,0-0.1,0-0.1c0,0,0,0,0-0.1c0.1-0.3,0.2-0.6,0.2-0.9c0-0.2,0.1-0.5,0.1-0.7
			c0,0.2-0.1,0.3-0.1,0.5c0-0.2,0.1-0.4,0.1-0.6v0c0,0.1-0.1,0.2-0.1,0.2c0-0.3,0.1-0.7,0.1-1l0-0.1c0.2-0.7,0.3-1.4,0.4-2.1
			c-0.1-0.5-0.1-0.9-0.2-1.4c-0.2-1.1-0.4-2.1-0.8-3.1c0,0,0-0.1,0-0.1c-0.2-0.6-0.5-1.2-0.8-1.7c-0.6-1.2-1.3-2.4-2.1-3.5
			c-0.5-0.8-1-1.5-1.6-2.2c0,0,0-0.1-0.1-0.1l0.1,0.1c0.1,0.1,0.5,0.6,0.6,0.7c-0.2-0.2-0.4-0.5-0.6-0.7c-0.2-0.3-0.4-0.5-0.6-0.8
			c0.2,0.2,0.5,0.4,0.5,0.3c-0.2-0.5,0.5,0.1,0.6,0.2c1.4,1.4,2.8,3,3.9,4.7c0,0.1,0.1,0.3,0.2,0.3c0.3,0.7,0.6,1.3,0.9,2
			c0,0.1,0.3,1.1,0.3,1.1c0.9,2.8,1.3,5.8,0.9,8.8c0-0.1,0-0.2,0.1-0.2c-0.1,0.6-0.3,1.9-0.3,1.9c0.1-0.2,0,0.1,0,0.2
			c0,0.1-0.1,0.2-0.1,0.3c0,0-0.1,0.2,0-0.2c0-0.1,0-0.2,0-0.3l-0.1,0.6C94.7,77,94.6,77.7,94.7,77.2L94.7,77.2z M94.9,75.8
			c0,0.1,0.1-0.4,0.1-0.4l0.1-0.5C95,75.2,95,75.5,94.9,75.8L94.9,75.8z M94.3,78.5c0,0.1,0-0.1,0-0.1c0-0.1,0-0.1,0.1-0.2
			c0,0,0,0.1,0,0.1c-0.1,0.1,0,0.1,0,0C94.4,78.3,94.3,78.5,94.3,78.5L94.3,78.5z M94.9,76.6c0,0.1,0-0.2,0-0.2c0-0.1,0-0.2,0.1-0.3
			c0,0,0,0.1,0,0.1c-0.1,0.2-0.1,0.2,0,0C94.9,76.3,94.9,76.4,94.9,76.6z M93.5,78.3c0,0,0,0.1,0,0.1c0,0.1,0,0.1-0.1,0.2
			c0,0,0-0.1,0-0.1c0-0.1,0.1-0.1,0,0C93.5,78.5,93.5,78.4,93.5,78.3L93.5,78.3z M92.8,80.2c0,0.1-0.1,0.3-0.1,0.3
			c0.1-0.2,0.1-0.1,0,0c0,0,0,0.1,0,0.1c0.1-0.1,0.1-0.2,0.1-0.3C92.8,80.4,92.9,80.1,92.8,80.2L92.8,80.2z M94.6,77.8
			C94.6,77.8,94.5,77.9,94.6,77.8C94.5,77.8,94.6,77.7,94.6,77.8C94.6,77.7,94.6,77.7,94.6,77.8L94.6,77.8z M93.3,79
			C93.3,79,93.3,79,93.3,79l-0.1,0.1C93.3,79.1,93.3,79.1,93.3,79L93.3,79L93.3,79z M56.3,60.6C56.3,60.6,56.3,60.6,56.3,60.6
			L56.3,60.6C56.3,60.6,56.3,60.6,56.3,60.6L56.3,60.6z M56.1,60.9c0,0,0-0.1,0.1-0.1C56.2,60.8,56.1,60.9,56.1,60.9
			C56.2,60.8,56.1,60.9,56.1,60.9L56.1,60.9z M63.1,53.4C63.1,53.4,63.2,53.4,63.1,53.4C63,53.5,62.8,53.6,63.1,53.4z M56.6,60.1
			c0,0,0-0.1,0.1-0.1c-0.1,0.1,0,0.1,0,0c0,0,0,0,0,0C56.7,59.9,56.7,60,56.6,60.1C56.7,60,56.6,60.1,56.6,60.1z M61.2,54.9
			c0,0-0.1,0.1-0.1,0.1c0.2-0.2,0.5-0.4,0.7-0.6C61.6,54.5,61.4,54.7,61.2,54.9z M56.6,60.1C56.6,60.1,56.7,60,56.6,60.1
			C56.6,60.1,56.6,60.1,56.6,60.1C56.5,60.3,56.4,60.3,56.6,60.1L56.6,60.1C56.5,60.2,56.6,60.1,56.6,60.1L56.6,60.1z M57.9,57.9
			c0,0,0,0.1-0.1,0.1C57.9,57.9,57.9,57.9,57.9,57.9C57.9,57.8,57.9,57.8,57.9,57.9L57.9,57.9z M60.4,89c0,0,0.1,0.1,0.1,0.1h0
			L60.4,89L60.4,89z M63,53.3C62.8,53.4,62.8,53.4,63,53.3c-0.3,0.2-0.7,0.4-0.2,0.1c0.1-0.1,0.2-0.1,0.3-0.2L63,53.3L63,53.3z
			 M61.9,54.1C61.9,54.1,61.9,54.1,61.9,54.1C61.9,54.1,61.9,54.1,61.9,54.1C61.9,54.1,61.9,54.1,61.9,54.1z M63.2,91.3
			C63.2,91.3,63.1,91.3,63.2,91.3z M90.9,80.3c-0.2,0.3-0.4,0.5-0.6,0.8C90.5,80.8,90.8,80.5,90.9,80.3
			C90.9,80.2,90.9,80.3,90.9,80.3L90.9,80.3z M91.1,79.9C91.1,79.9,91.1,79.9,91.1,79.9C91.1,79.9,91.1,79.9,91.1,79.9
			C91.1,79.9,91.1,79.9,91.1,79.9L91.1,79.9z M66.8,92.9c0,0,0.1,0,0.1,0C66.9,92.9,66.9,92.9,66.8,92.9L66.8,92.9z M66.8,92.9
			C66.9,92.9,66.9,92.9,66.8,92.9c0.1,0,0.1,0,0.1,0C66.8,92.9,66.4,92.8,66.8,92.9L66.8,92.9C66.8,92.9,66.8,92.9,66.8,92.9
			L66.8,92.9z M89.2,59.3c0-0.1-0.1-0.1-0.1-0.2c0.1,0.2,0.3,0.3,0.4,0.5C89.6,59.7,89.3,59.3,89.2,59.3
			C89.3,59.3,89.3,59.3,89.2,59.3L89.2,59.3z M89.2,59.3c-0.1-0.1-0.1-0.2-0.2-0.3C89.1,59.1,89.2,59.2,89.2,59.3L89.2,59.3z"/>
		<path id="prefix__Path_8027" class="st1" d="M92.8,76.5c-0.2,1.4-0.5,2.7-1,4l-0.2,0.6c-2.8,8.9-8.1,18-14.5,17.8
			c-1.5,0-2.1-1.5-2-3.5c0.3-7.3,5.6-13.6,13-17.2c0.4-0.2,0.7-0.3,1.1-0.5c0.8-0.3,1.7-0.7,2.7-1C92,76.7,92.4,76.6,92.8,76.5
			L92.8,76.5z M48.9,64.1l-0.1,0.4l-0.2,0.6c-0.3,1.1-0.8,3-1.1,4.6c-0.5,2.4-0.8,4.4,0,5.6c1,1.5,3.3-0.9,5.7-4l0.4-0.6
			c1.6-1.9,2.6-4.2,4.7-5.7c-0.3,2.4-1.2,5-0.2,7.4c0.2,0.6,0.5,0.9,0.9,0.7c1.2-0.6,4.4-3.5,7.8-6.4l0.7-0.6
			c1.1-0.9,2.2-1.9,3.3-2.8c4-3.2,7.1-5.1,5.4-1.1c-0.3,0.7-0.6,1.4-0.9,2.2c-1.2,3.5-2.3,7-3.2,10.6c-0.4,1.6-2.2,9.3,0.5,9.6
			c3.2,0.3,9.4-9.5,14.9-15.9c0,1.2,0.5,2.3,1.4,3.1c0.2,0.1,0.4,0.3,0.6,0.3c1.9,0.3,3.1-1.7,3.8-3.1c0,0.6,0,1.1,0,1.7
			c0,1.7,0.4,3.8-0.6,5c-1.1,0.8-3,1.3-4.6,2c-6.4,3.1-12,8.1-13.5,15.2c-0.7,3.2-1,8.2,5.9,6.9c8-1.5,11.9-13.1,13.6-19.9
			c0.3-1.3,0.8-3.1,1-4.4c0.7-0.4,1.5-0.7,2.2-1c0.3-0.1,0.6-0.2,0.9-0.3c14.8-5.7-1.7,7.2,10.1,1.9c1.3-0.6,2.6-1.4,3.7-2.3
			c0.4-0.3,0.4-0.5,0.3-0.6c-1.5,0.2-1.7,1.3-3.1,2.1c-9.6,5.3,4.9-6-8.3-2.5c-0.1,0-0.2,0-0.4,0.1c-0.9,0.2-1.7,0.4-2.5,0.7
			c-0.3,0.1-0.6,0.2-0.9,0.4c-0.6,0.2-1.2,0.5-1.9,0.8c0.1-1.1,0.2-2.2,0.3-3.3c0.2-1.8,0-3.6-0.4-5.4c-0.3-0.3-0.6-0.4-1-0.4
			c-0.9,0.1-0.9,0.9-1,1.1l0,0.2l0,0c-0.1,0.8-0.4,1.6-0.9,2.2c-3,4.1-3.8,1.2-2.9-1.2c0.8-2.2-0.6-3.9-1.5-1.3
			c-0.1,0.4-0.2,0.7-0.2,1.1c-4,4.6-7.9,10.5-10.9,13.1c-4,3.5-2.8-1.3-2.1-3.3c0.4-1.4,0.9-2.7,1.4-4.1c0.5-1.7,1.3-3.4,1.7-5.1
			l0.2-0.7c1.7-5.2,2.8-9.7,0.4-9.5c-4.3,0.4-12,8.2-16,11.5c-0.3,0.3-0.6,0.5-0.8,0.7c-0.5,0.2-1.4,1.1-1.4,0.6
			c-0.2-2.7,1.3-5.2,2.2-7.7l0.2-0.7c0.4-1.1-1.5-0.8-2.1-0.8c-3.4,1.5-5.2,5.5-7.4,8.3l-0.5,0.7c-2.1,2.8-3.7,4.7-3.5,3.1
			c0.7-3.2,1.5-6.3,2.6-9.4c0.6-1.7-1.7-1.5-2.1-1.4C49,63.1,48.9,64.1,48.9,64.1L48.9,64.1z"/>
		<g id="prefix__AKKA" transform="translate(106.504 53.514)">
			<g class="st2">
				<path class="st3" d="M0,23.7h2.2L8.9,5.7h0.6l6.8,17.9h2.2V24h-7.7v-0.3h2.8l-2.6-7H5.2l-2.6,7h2.8V24H0V23.7z M8.1,9.1
					l-2.8,7.3h5.5L8.1,9.1z"/>
				<path class="st3" d="M19.3,23.7H22V6.5h-2.8V6.2h7.9v0.3h-2.6v8h0.2l7.6-8h-2.6V6.2h5.2v0.3h-2.1l-6.4,6.7l9.1,10.4h1.7V24H30
					v-0.3h2.2l-7.5-8.8h-0.2v8.8h2.6V24h-7.9V23.7z"/>
				<path class="st3" d="M37.8,23.7h2.8V6.5h-2.8V6.2h7.9v0.3h-2.6v8h0.2l7.5-8h-2.6V6.2h5.2v0.3h-2.1L45,13.3l9.1,10.4h1.7V24h-7.2
					v-0.3h2.2l-7.5-8.8h-0.2v8.8h2.6V24h-7.9V23.7z"/>
				<path class="st3" d="M55.5,23.7h2.2l6.8-17.9h0.6l6.8,17.9h2.2V24h-7.7v-0.3h2.8l-2.6-7h-5.8l-2.6,7h2.8V24h-5.4V23.7z
					 M63.7,9.1l-2.8,7.3h5.5L63.7,9.1z"/>
			</g>
		</g>
		<g id="prefix__AKKA-3" transform="translate(191.314 63.115)">
			<g class="st2">
				<path class="st3" d="M0.5,13.8h1.7V3.5H0.5V3.3h2.6c0.1,0,0.3,0,0.5,0s0.3,0,0.5,0c0.2,0,0.3,0,0.5,0c0.2,0,0.3,0,0.4,0
					c0.7,0,1.3,0.1,1.8,0.3c0.5,0.2,0.8,0.4,1.1,0.6C8.1,4.4,8.3,4.7,8.4,5c0.1,0.3,0.1,0.6,0.1,0.8c0,0.3-0.1,0.6-0.2,0.9
					C8.2,7,8,7.3,7.7,7.5S7.2,7.8,6.9,8c-0.3,0.1-0.7,0.2-1,0.3v0c0.4,0,0.7,0.1,1.1,0.2S7.7,8.8,8,9c0.3,0.2,0.6,0.5,0.7,0.8
					C8.9,10.2,9,10.6,9,11c0,0.4-0.1,0.9-0.3,1.2c-0.2,0.4-0.4,0.7-0.8,1c-0.3,0.3-0.8,0.5-1.3,0.6c-0.5,0.2-1.1,0.2-1.8,0.2
					c-0.1,0-0.3,0-0.4,0c-0.1,0-0.3,0-0.4,0c-0.2,0-0.3,0-0.5,0c-0.2,0-0.3,0-0.5,0H0.5V13.8z M3.6,8.2H5c0.3,0,0.5,0,0.8-0.1
					C6,8,6.2,7.9,6.4,7.7S6.6,7.3,6.7,7c0.1-0.3,0.1-0.7,0.1-1.1c0-0.5-0.1-0.9-0.2-1.3C6.5,4.3,6.4,4,6.1,3.9
					C5.9,3.7,5.7,3.6,5.4,3.6c-0.3,0-0.5-0.1-0.8-0.1c-0.2,0-0.4,0-0.5,0c-0.2,0-0.3,0-0.5,0V8.2z M3.6,13.8c0.1,0,0.3,0,0.4,0
					c0.1,0,0.4,0,0.6,0c0.5,0,0.9,0,1.2-0.1s0.6-0.2,0.8-0.5C6.9,13,7,12.7,7.1,12.3C7.2,12,7.3,11.5,7.3,11c0-0.8-0.2-1.4-0.5-1.9
					S5.9,8.4,5.3,8.4H3.6V13.8z"/>
				<path class="st3" d="M10.5,13.8h1.7V3.5h-1.7V3.3h4.8v0.2h-1.7v10.3h2.7c0.9,0,1.6-0.3,2.1-0.8s0.9-1.3,1.1-2.2h0.2V14h-9.2
					V13.8z"/>
				<path class="st3" d="M21.3,8.6c0-0.8,0.2-1.5,0.5-2.2c0.3-0.7,0.7-1.3,1.2-1.8s1.1-0.9,1.7-1.2S25.9,3,26.5,3
					c0.7,0,1.3,0.1,1.9,0.4s1.2,0.7,1.7,1.2c0.5,0.5,0.9,1.1,1.2,1.8c0.3,0.7,0.4,1.4,0.4,2.2c0,0.7-0.1,1.4-0.4,2.1
					c-0.3,0.7-0.6,1.3-1.1,1.8c-0.5,0.5-1,0.9-1.7,1.3c-0.6,0.3-1.3,0.5-2,0.5c-0.8,0-1.4-0.2-2.1-0.5c-0.6-0.3-1.2-0.7-1.7-1.2
					c-0.5-0.5-0.8-1.1-1.1-1.8S21.3,9.4,21.3,8.6z M23,8.6c0,0.9,0.1,1.7,0.2,2.4c0.1,0.7,0.3,1.2,0.6,1.7c0.3,0.5,0.6,0.8,1.1,1
					c0.4,0.2,1,0.3,1.6,0.3c0.6,0,1.2-0.1,1.6-0.3c0.4-0.2,0.8-0.6,1.1-1c0.3-0.4,0.5-1,0.6-1.7C30,10.3,30,9.5,30,8.6
					c0-0.7,0-1.4-0.1-2c-0.1-0.6-0.3-1.2-0.5-1.7S28.8,4,28.3,3.7s-1-0.5-1.8-0.5c-0.7,0-1.3,0.2-1.8,0.5s-0.8,0.7-1.1,1.2
					S23.3,6,23.2,6.6C23.1,7.3,23,8,23,8.6z"/>
				<path class="st3" d="M44.4,10.2h-1.2v3.4H43c-0.1-0.1-0.2-0.2-0.3-0.2c-0.1,0-0.2-0.1-0.3-0.1c-0.2,0-0.4,0-0.5,0.1
					c-0.2,0.1-0.4,0.2-0.6,0.3s-0.5,0.2-0.9,0.3c-0.3,0.1-0.7,0.1-1.2,0.1c-0.7,0-1.3-0.1-1.9-0.4c-0.5-0.2-1.1-0.6-1.6-1.1
					c-0.5-0.5-0.9-1.1-1.2-1.8c-0.3-0.7-0.5-1.4-0.5-2.3c0-0.6,0.1-1.1,0.2-1.5s0.3-0.9,0.5-1.2c0.2-0.3,0.4-0.6,0.6-0.9
					c0.2-0.2,0.4-0.4,0.5-0.5c0.5-0.5,1-0.8,1.5-1.1c0.6-0.3,1.2-0.4,2-0.4c0.4,0,0.7,0,0.9,0.1c0.2,0.1,0.5,0.1,0.6,0.2
					c0.2,0.1,0.3,0.1,0.5,0.2c0.1,0.1,0.3,0.1,0.5,0.1c0.2,0,0.3,0,0.4-0.1s0.2-0.1,0.2-0.2h0.2v3h-0.2c0-0.3-0.1-0.6-0.2-0.9
					c-0.1-0.4-0.3-0.7-0.5-1c-0.2-0.3-0.6-0.6-1-0.8c-0.4-0.2-0.9-0.3-1.6-0.3c-0.8,0-1.4,0.2-1.8,0.5C36.9,4,36.5,4.5,36.3,5
					s-0.4,1.1-0.5,1.7c-0.1,0.7-0.1,1.3-0.1,2c0,0.4,0,0.9,0.1,1.3s0.1,0.9,0.2,1.3c0.1,0.4,0.2,0.8,0.4,1.1
					c0.2,0.3,0.4,0.6,0.7,0.9c0.3,0.3,0.6,0.5,0.9,0.6c0.3,0.1,0.7,0.2,1.2,0.2c0.3,0,0.6-0.1,0.9-0.2c0.3-0.1,0.6-0.3,0.8-0.5
					c0.2-0.2,0.4-0.5,0.6-0.8c0.2-0.3,0.2-0.7,0.2-1.1v-1.3h-1.9V10h4.6V10.2z"/>
			</g>
		</g>
	</g>
</g>
</svg>
