<svg xmlns="http://www.w3.org/2000/svg" width="360.556" height="96.536" viewBox="0 0 360.556 96.536">
    <defs>
        <style>
            .prefix__cls-3{isolation:isolate}
        </style>
    </defs>
    <g id="prefix__myAkka" transform="translate(-169 -103.508)">
        <path id="prefix__Path_8026" fill="#947d58" fill-rule="evenodd" d="M354.023 218.911c-.146.28-.292.1-.195.013.073-.025.134-.049.195-.073v.06zm-.243-5.111l-.037-.353a1.165 1.165 0 0 1 .037.353zm-.037-.4l-.012-.206c.049-.1.121-.353.146-.037.036.243.025.134-.085.243zm-.1-1.338a34.393 34.393 0 0 1 .085-5.38c.025-.426.073-.839.109-1.265a43.61 43.61 0 0 1 3.274-11.757c.292-.621.584-1.229.876-1.837.049-.122.146-.353.292-.633.682-1.083 1.315-2.093 2.069-3.152-.207.232-.414.475-.609.73.025-.036.049-.085.073-.121.255-.317.511-.621.755-.925.145-.2.279-.39.414-.572-.292.475-.852 1.388-1.485 2.483l-.791 1.241.025-.012a5.549 5.549 0 0 0-.341.645c0 .025.6-1 .791-1.277-.3.572-.621 1.156-.9 1.752-.207.438-.414.888-.584 1.314-.378.608-.73 1.217-1.071 1.849-.194.463-.389.913-.56 1.388-.024.025-.316.852-.085.426.037-.073.158-.317.183-.377.352-.755.73-1.522 1.1-2.276-.9 1.278-.852 1.169.1-.231a2.961 2.961 0 0 0 .122-.292 36.243 36.243 0 0 0-2.738 10.831c-.328 1.18-.621 2.373-.84 3.578-.025.389.024.779-.025 1.168-.06.341.073.1-.085.694a4.26 4.26 0 0 0-.061 1.046c-.024.243-.049.609-.085.962zm1.1-7.46c.171-.6.353-1.193.548-1.777l.061-.037c2.166-8.726 8.556-18.267 12.621-21.87 4.576-4.053 3.31-2.775 5.087-3.834-.682.4-1.631.974-1.7 1.035.146-.11.28-.219.426-.328-.511.353-1.022.693-1.533 1.07-.645.438-1.874 1.4-1.874 1.4s-.329.317-.475.475c-.17.146-.365.3-.535.451-.232.231-.438.474-.657.717a1.142 1.142 0 0 1 .121-.121.765.765 0 0 0-.17.17.036.036 0 0 0-.024.013v.012c-.146.146-.292.317-.451.487-.937.926-1.837 1.9-2.69 2.921.159-.159.317-.317.487-.475a33.612 33.612 0 0 0-2.117 2.616.41.41 0 0 1 .1-.06c-.316.438-.632.888-.925 1.338.1-.171.207-.328.292-.487a.228.228 0 0 0-.109.036c-.183.244-.353.5-.56.767a2.833 2.833 0 0 1 .255-.28c-.34.548-.681 1.145-1.046 1.692a16.648 16.648 0 0 0-1.059 1.753 37.808 37.808 0 0 0-3.176 7.387c0 .037.024.061.024.1-.109.365-.219.755-.3 1.12a25.066 25.066 0 0 0-.609 3.712zm72.073 23.89c.048-.11.085-.219.133-.329-.024.061-.086.195-.086.195.3-.633.28-.56-.012.109-.049.122-.1.243-.134.353-.183.268.1-.328.1-.328zm3.3-5.416a1.933 1.933 0 0 0 .122-.378c.048-.256.559-2.969.584-2.969.025.024 0 .085.025.012 0-.036.012.024.037-.11a13.025 13.025 0 0 1 .244-1.947 2.353 2.353 0 0 0 .061-.4 52.483 52.483 0 0 0-.073-6.913 40.683 40.683 0 0 0-1.266-6.73c-.121-.45-.268-.913-.414-1.364-.122-.438-.267-.864-.414-1.29-.195-.559-.462-1.1-.681-1.655a25.826 25.826 0 0 0-1.241-3.213.67.67 0 0 0-.1-.182c.049.073.049.134.086.195.012.036.048.207.06.255a2.126 2.126 0 0 1-.11-.244c-.012-.036-.1-.206-.122-.268a.118.118 0 0 0 .061.049 8.08 8.08 0 0 1-.657-1.484c-.487-1.387-1.168-2.543-1.728-3.87-.414-.536-1.436-1.692-1.7-2.166-.22-.718-3.542-3.773-4.285-4.454a1.42 1.42 0 0 0-.146-.134 30.9 30.9 0 0 0-2.873-2.105 40.622 40.622 0 0 0-5.087-2.945c-.73-.633-1.472-1.229-2.215-1.789-.511-.353-1.022-.706-1.534-1.047-.6-.438-1.192-.84-1.8-1.278a34.069 34.069 0 0 0-4.248-2.312 31.611 31.611 0 0 0-4.028-1.558s-1.193-.4-1.777-.547c-.56-.146-1.12-.268-1.7-.39a32.746 32.746 0 0 0-6.242-.583 27.893 27.893 0 0 0-3.712.913 10.115 10.115 0 0 0-1.071-.39q-.768.311-1.534.657c-.56.024-1.12.061-1.667.1a2.6 2.6 0 0 1-.232.268 7.648 7.648 0 0 0-.559.706c-.219-.17-.438-.316-.657-.474a.742.742 0 0 1-.158.048q-.128.4-.292.8c-.255-.121-.535-.243-.815-.353-.146.049-.3.109-.462.171-.049.329-.074.645-.122.949-.34-.171-.681-.317-1.022-.475-.45.183-.888.365-1.326.548a37.866 37.866 0 0 0-3.785 3.359 24.357 24.357 0 0 0-2.41.913c-.475.535-.925 1.1-1.363 1.643-.025.037-.122.146-.146.183-.17 0-.366.012-.536.012a52.153 52.153 0 0 0-3.943 3.919c-.231.3-.4.657-.669.973-.219.256.012.122-.439.548a5.93 5.93 0 0 0-.608.84 17.756 17.756 0 0 0-1.132 1.558 1.577 1.577 0 0 1-.024.219c.1-.037.292-.232.146.061-.1.219-.073.109-.194.158a.064.064 0 0 0-.049-.036 1.259 1.259 0 0 1-.206.378 1.008 1.008 0 0 1-.013-.2 6.429 6.429 0 0 0-.621 1.022c-.109.207-.255.414-.377.633-.353.547-.681 1.181-1 1.752-.815 1.558-1.448 3.2-2.215 4.649a9.176 9.176 0 0 0-.852 3.14c-.024.146-.1.535-.11.45-.134.451-.28.925-.389 1.375.036-.049.086-.109.133-.17-.1.34-.219.67-.316 1.01.025-.012.049 0 .073 0a1.159 1.159 0 0 1-.121.5.886.886 0 0 1 0-.183c-.024 0-.073.012-.1 0-.024.073-.024.134-.049.194 0 0 .025 0 .025-.012a1.572 1.572 0 0 1-.121.621c-.146.961-.243 1.886-.328 2.848a20.573 20.573 0 0 0-.134 2.945c-.013.292-.024.572-.024.852-.037 1.083-.049 2.166 0 3.261.049.268.1.609.121.9a23.786 23.786 0 0 0 .511 4.734c.1.475.219.962.317 1.437a2.694 2.694 0 0 0 .341 1.18v.025a23.677 23.677 0 0 1 .657 2.4 2.192 2.192 0 0 0 .256.95c.109.329.328 1.022.328 1.022-.1-.146-.194-.292-.28-.451 0 0 .329.949.463 1.4a21.449 21.449 0 0 0 .851 2.056 10.917 10.917 0 0 1 .5 1.022 9.784 9.784 0 0 1 .608 1.8c-.073.1.341.779.341.767a3.381 3.381 0 0 0-.085.925c.6 1.192 1.253 2.3 1.935 3.4a4.245 4.245 0 0 0 .268.4.1.1 0 0 1 .024.049c.025-.122.012-.268.146-.134s0 .183-.073.255c.024.024.243.2.134.232.451.755.913 1.5 1.412 2.227.6.717 1.205 1.412 1.838 2.069.243.3.5.6.743.888-.5-.438-1.011-.888-1.485-1.351a7.572 7.572 0 0 0 .962 1.132c0 .012-.024.024-.024.036a1.216 1.216 0 0 0 .621.657 1.424 1.424 0 0 0-.158-.231l.511.4c.074.048.292.182.207.182.183.158.366.329.547.475a.043.043 0 0 1 .013-.036c.183.158.377.329.572.487a35.38 35.38 0 0 0 2.9 2.373.6.6 0 0 0 .17.036c.073.061.17.122.243.194a.557.557 0 0 1 .1.086c.012.012.012.036.024.036.34.244.681.462 1.034.694a3.835 3.835 0 0 0 .377.231.829.829 0 0 1 .122.037 33.186 33.186 0 0 0 3.335 1.8 50.829 50.829 0 0 1-6.475-3.481 1.446 1.446 0 0 1-.243-.061h-.038a3.573 3.573 0 0 1 .511.536c.389.511-1.631-1.12-1.364-.681.585.487 1.071.973 1.631 1.387.56.438 1.168.84 1.765 1.266l.425.268c-.462-.328-.937-.657-1.4-1a5.427 5.427 0 0 1-.937-.694c-.439-.365-.852-.742-1.29-1.144.182.183.365.317.536.487.559.475 1.107.925 1.691 1.351a.7.7 0 0 1 .1.049 12.225 12.225 0 0 0 1.984 1.205c.219.109.292.328.5.438.268.121.6.6.84.681.061.025.061.025 0-.012.438.219.852.621 1.388.876a.177.177 0 0 0 .049.024c.121.049.511.207.121.074a8.806 8.806 0 0 0 1.3.6s.4.219.426.243a34.225 34.225 0 0 0 4.82 1.278c-.292-.037-.573-.061-.852-.1 0 0 1.168.219 1.752.292 0 0 1.582.219 1.631.219a20.7 20.7 0 0 0 4.161.049 11.528 11.528 0 0 1 1.217-.134c.109.012.584-.049.73-.049s.8-.121 1.557-.255h.548c0-.013-.013-.025-.013-.049.243.012.511.012.755.012 1.241.061 2.507.061 3.749 0 .328-.109.109-.146.6-.049.024 0 .024.012.036.012.438-.024.852-.049 1.278-.1.061.012.353-.036.45-.036a1.78 1.78 0 0 1 .511-.147c.414-.036.852-.072 1.266-.134.73-.109 1.461-.244 2.179-.389.28.134.45-.109.645-.292a3.93 3.93 0 0 1 1.364-.462c.292.036.073.231.56-.049a4.285 4.285 0 0 1 .559-.231l-.182.255c.414-.121.84-.268 1.253-.414.219-.109.414-.256.633-.365.134-.049.487-.378.536-.378.34.036.851-.389 1.01-.158 1.144-.5 2.227-1.034 3.31-1.631a37.492 37.492 0 0 0 15.25-15.578c.072-.145.243-.56.072-.681a38.514 38.514 0 0 1-4.405 6.572A37.094 37.094 0 0 1 410.1 247.4l-2.7 1.241c.291-.183.584-.366.876-.536a5.91 5.91 0 0 0 .621-.876 8.495 8.495 0 0 1 .889-.438 28.958 28.958 0 0 0 3.067-1.764 16.227 16.227 0 0 0 1.886-1.12c2.471-2.252 3.785-3.055 6.232-5.866a37.912 37.912 0 0 0 5.756-9.177s.073-.145.073-.158c.1-.255.194-.511.28-.779.024-.061.377-1.168.134-.559.024-.037-.122.267-.147.34a28.065 28.065 0 0 1-1.2 2.653c-.036-.025.037-.11-.036-.025-.049.049.061-.158-.049.073a6.109 6.109 0 0 0-.3.644 35.285 35.285 0 0 1-4.612 6.888 31.288 31.288 0 0 1-3.7 3.712 11.348 11.348 0 0 0-1.193 1.035s-1.022.779-1.107.852c-.268.231-.743.475-1.071.706-.426.329-.864.645-1.326.949a.3.3 0 0 0 .109-.049c-.109.073-.207.134-.3.195a1.989 1.989 0 0 1 .171-.121c-.95.463-1.862.84-2.812 1.278a2.853 2.853 0 0 0-.377.195.892.892 0 0 1 .426-.109h.28c-.048.024-.195.086-.231.1-.1.073-.548.256-.694.329.049-.1.122-.194.183-.292a4.49 4.49 0 0 1-1.144.548c-.328.11-.656.255-.961.389a27.909 27.909 0 0 1-3.262.8 17.072 17.072 0 0 1-2.434.694 32.159 32.159 0 0 0-3.408.56c.511-.243 1-.5 1-.5.365-.17.718-.353 1.071-.535-.547.256-1.119.5-1.679.73l.657-.292c.56-.243 1.12-.511 1.656-.779.17-.1.584-.353.706-.413.4-.207.949-.56 1.326-.718.183-.121.353-.243.524-.377.45-.292 1-.584 1.411-.9a14.641 14.641 0 0 1 1.29-.937c.1-.073.414-.279.134-.073a5.4 5.4 0 0 0 1.01-.632.026.026 0 0 0 .025-.024 42.66 42.66 0 0 0 4.527-3.529 9.317 9.317 0 0 0 .913-.73c-.061.025-.109.06-.183.085.146-.109.292-.219.463-.328a.537.537 0 0 1 .06.012c-.085.085-.182.171-.255.256a9.048 9.048 0 0 0 .73-.621.088.088 0 0 0-.049-.013c.463-.365.9-.717 1.364-1.107.024-.012.121-.121.158-.146-.037.025-.158.1-.183.121s-.122.085-.146.109a.572.572 0 0 0 .134-.109 18.431 18.431 0 0 0 2.665-2.58 7.028 7.028 0 0 1 .731-.864c1.3-1.387 2.41-2.811 3.626-4.235.219-.243.39-.511.6-.779q.584-.84 1.132-1.679a.247.247 0 0 1 .025-.073 13.907 13.907 0 0 0 1.022-2.045 5.113 5.113 0 0 0 .268-.584 6.126 6.126 0 0 0 .353-.962c.061-.219.207-.511.28-.73.024-.061.17-.438.1-.17a8.459 8.459 0 0 0 .487-1.144 3.327 3.327 0 0 1 .243-.438 7.279 7.279 0 0 0 .34-.986.774.774 0 0 1 .146-.3 1.968 1.968 0 0 1 .17-.45c.085-.256.183-.511.268-.767 0-.061.012-.121.012-.17a.651.651 0 0 1 .061-.1c.17-.56.316-1.132.438-1.7.073-.45.1-.913.145-1.364-.072.329-.133.645-.194.962a10.1 10.1 0 0 1 .194-1.2v-.073c-.024.134-.109.414-.109.414.061-.621.158-1.265.182-1.9.024-.1.049-.194.073-.279a37.377 37.377 0 0 0 .73-3.967 22.332 22.332 0 0 1-.341-2.653c.194-.669-1.2-4.929-1.509-5.878a1.2 1.2 0 0 1-.073-.183 28.956 28.956 0 0 0-1.533-3.274 52.413 52.413 0 0 0-3.943-6.547 44.478 44.478 0 0 0-3.007-4.077.553.553 0 0 0-.11-.146c.025.025.1.109.122.134.17.134.925 1.046 1.119 1.278-.34-.463-.681-.913-1.046-1.352a16.285 16.285 0 0 0-1.193-1.472c.353.3.913.766 1.022.645-.317-1 .925.134 1.12.3 3.6 3.31 4.5 5.221 7.29 8.738.06.122.255.535.3.621.632 1.266 1.192 2.494 1.7 3.809.037.134.572 1.984.584 2a38.276 38.276 0 0 1 1.7 16.515c.024-.159.061-.3.1-.463-.134 1.156-.56 3.468-.56 3.468.122-.45-.025.28-.025.317-.049.194-.1.39-.134.584 0-.013-.134.4.085-.451.024-.158.037-.329.049-.5-.073.365-.146.73-.219 1.083-.049.159-.243 1.387-.049.487zm.426-2.7c-.085.255.11-.8.11-.828l.219-.913a8.447 8.447 0 0 1-.329 1.741zm-1.1 5.184c-.036.1.037-.28.037-.231.024-.122.072-.232.1-.341a.845.845 0 0 0-.025.17c-.1.268-.072.219 0 .024 0 0-.072.243-.109.378zm1.06-3.724c-.037.17.048-.414.024-.341.048-.194.085-.4.121-.6a1.529 1.529 0 0 0-.024.244c-.121.426-.1.414 0 .049a4.121 4.121 0 0 1-.121.645zm-2.5 3.31c.036-.085-.06.279-.06.243-.025.1-.073.207-.1.317a.834.834 0 0 0 .024-.158c.085-.219.1-.256.024-.049 0 .012.073-.231.109-.353zm-1.375 3.469c-.085.194-.219.572-.219.572.182-.341.146-.28-.037.061-.025.073-.06.146-.085.219.1-.17.171-.34.256-.511-.025.073.182-.5.085-.34zm3.262-4.528c0 .049-.11.329-.036.073.012-.049.036-.11.048-.17 0 .036-.012.06-.012.1zm-2.313 2.276a.518.518 0 0 1-.024.122l-.073.146c0-.036.024-.06.024-.085l.073-.183zm-69.431-34.393a1.013 1.013 0 0 0 .061-.109l-.012.013a.349.349 0 0 1-.049.1zm-.3.548a2.4 2.4 0 0 1 .121-.256c-.025.037-.121.207-.036.073 0 0-.061.121-.085.183zm13.12-14.081a.194.194 0 0 1 .085-.049c-.3.231-.67.426-.085.049zM358.77 190.96a2.1 2.1 0 0 0 .121-.243c-.1.146-.072.1.024-.037.025-.036.025-.06.049-.085-.049.061-.085.134-.134.207.012-.036-.11.244-.061.159zm8.665-9.761a1.289 1.289 0 0 0-.232.219 13.847 13.847 0 0 1 1.327-1.217c-.365.329-.742.658-1.1 1zm-8.775 9.81s.183-.28.074-.146a.326.326 0 0 0-.074.146c-.182.279-.256.365-.037.073l-.048.085a.642.642 0 0 0 .085-.158zm2.519-4.2a1.815 1.815 0 0 1-.146.182 1.36 1.36 0 0 0 .17-.231c.037-.024.025 0-.025.049zM365.9 245.2a1.843 1.843 0 0 1 .219.194h-.036c-.061-.06-.11-.109-.183-.194zm4.893-66.937c-.463.219-.487.219-.061.025-.511.353-1.278.791-.292.122.219-.134.438-.244.645-.366l-.292.219zm-2.081 1.485c.012 0 .037-.012.049-.012a.055.055 0 0 0-.06.049.046.046 0 0 1 .012-.037zm2.373 69.785c-.073-.013-.085-.024 0 0zm51.967-20.75c-.341.511-.754 1.022-1.144 1.509.426-.536.852-1.1 1.229-1.667-.025.049-.086.158-.086.158zm.438-.742a.422.422 0 0 0-.1.158.176.176 0 0 1 .024-.073c.025-.024.049-.061.073-.085zm-45.553 24.426c.085.024.158.049.255.085-.092-.026-.169-.075-.254-.087zm0 0a.78.78 0 0 1 .073.049c.048.012.085.012.134.024-.244-.036-1.023-.195-.22-.085l.013.013c-.061-.025-.036-.013 0 0zm42-63.055c-.085-.146-.17-.28-.255-.414a11.984 11.984 0 0 1 .718.973c.147.232-.389-.45-.4-.462a.667.667 0 0 0-.061-.1zm0 .012a5.7 5.7 0 0 1-.365-.523 2.535 2.535 0 0 1 .365.522z" data-name="Path 8026" transform="translate(-171.739 -65.749)"/>
        <path id="prefix__Path_8027" fill="#333" fill-rule="evenodd" d="M412.035 246.251a55.8 55.8 0 0 1-1.808 7.572l-.339 1.112c-5.223 16.628-15.175 33.733-27.244 33.393-2.8-.077-3.971-2.75-3.816-6.505.556-13.614 10.569-25.512 24.384-32.3.665-.309 1.329-.618 2.009-.912 1.576-.587 3.245-1.328 5.006-1.823.418-.108 1.02-.294 1.808-.541zm-82.27-23.287l-.2.773-.293 1.1c-.556 2.117-1.453 5.64-2.117 8.638-1.02 4.59-1.5 8.252.015 10.57 1.9 2.874 6.136-1.7 10.741-7.526l.819-1.035c2.966-3.523 4.96-7.9 8.745-10.694-.6 4.59-2.194 9.364-.448 13.862.418 1.1.989 1.7 1.746 1.3 2.287-1.19 8.3-6.567 14.6-12.007l1.251-1.081c2.071-1.715 4.1-3.492 6.181-5.192 7.525-6.088 13.274-9.6 10.168-2.086a33.009 33.009 0 0 0-1.669 4.033c-2.133 6.552-4.528 13.135-5.95 19.841-.711 3.029-4.1 17.508.865 17.957 5.965.541 17.555-17.8 27.908-29.762a7.875 7.875 0 0 0 2.549 5.872 4.012 4.012 0 0 0 1.159.618c3.492.649 5.764-3.121 7.046-5.872.031 1.035.062 2.086.047 3.121-.016 3.214.71 7.093-1.144 9.3-2.055 1.529-5.548 2.41-8.546 3.74-11.991 5.733-22.406 15.174-25.4 28.572-1.375 6.088-1.885 15.329 11.126 12.888 14.959-2.8 22.33-24.493 25.4-37.365.525-2.411 1.421-5.779 1.792-8.267 1.391-.68 2.781-1.283 4.126-1.823.556-.232 1.1-.449 1.653-.649 27.823-10.685-3.272 13.577 18.859 3.638a33.825 33.825 0 0 0 6.969-4.342c.726-.541.819-.927.541-1.051-2.782.433-3.276 2.488-5.872 3.925-18.018 9.89 9.13-11.264-15.626-4.666a2.435 2.435 0 0 0-.679.17 28.566 28.566 0 0 0-4.7 1.338c-.571.216-1.128.432-1.684.664-1.143.464-2.287.958-3.477 1.5.17-2.071.356-4.141.634-6.274.185-3.136.185-7.108-.742-10.106a2.649 2.649 0 0 0-1.823-.742c-1.7.185-1.638 1.607-1.793 2.024l.031.34-.015.016a8.218 8.218 0 0 1-1.623 4.156c-5.532 7.711-7.185 2.241-5.454-2.256 1.591-4.11-1.1-7.309-2.766-2.472a10.555 10.555 0 0 0-.464 2.024c-7.54 8.545-14.85 19.656-20.521 24.616-7.541 6.6-5.161-2.379-3.94-6.273.788-2.565 1.653-5.115 2.549-7.649 1.02-3.214 2.411-6.413 3.276-9.566l.433-1.344c3.214-9.8 5.192-18.157.772-17.74-8 .757-22.592 15.376-29.978 21.556-.587.479-1.1.912-1.576 1.268-1.02.417-2.6 2.008-2.6 1.205-.4-4.976 2.38-9.766 4.126-14.464l.448-1.252c.726-1.978-2.8-1.576-3.894-1.422-6.459 2.8-9.658 10.369-13.908 15.577l-.912 1.221c-3.878 5.207-6.876 8.869-6.536 5.779.34-2.9 3.678-14.433 4.791-17.678 1.113-3.261-3.121-2.89-3.956-2.658-.8.247-1.067 2.117-1.067 2.117z" data-name="Path 8027" transform="translate(-157.203 -90.248)"/>
        <g id="prefix__AKKA" class="prefix__cls-3" transform="translate(279.556 113.894)">
            <text id="prefix__AKKA-2" fill="#4b4e53" data-name="AKKA" font-family="Didot" transform="translate(1 45)" style="isolation:isolate" font-size="49px">
                <tspan x="0" y="0">AKKA</tspan>
            </text>
        </g>
        <g id="prefix__AKKA-3" class="prefix__cls-3" data-name="AKKA" transform="translate(477.556 113.894)">
            <text id="prefix__BLOG" transform="translate(-38 45)" style="isolation:isolate" fill="#4b4e53" font-family="Didot" font-size="30px">
                <tspan x="0" y="0">BLOG</tspan>
            </text>
        </g>
    </g>
</svg>
